<svg width="64" height="64" viewBox="0 0 64 64" fill="none" xmlns="http://www.w3.org/2000/svg">
<path d="M12.3932 32H5.5C4.67157 32 4 32.6716 4 33.5C4 34.3284 4.67158 35 5.5 35H13.0072C12.8272 33.9948 12.6172 32.9962 12.3932 32Z" fill="#E31E24"/>
<path d="M50.9919 35H58.4992C59.3276 35 59.9992 34.3284 59.9992 33.5C59.9992 32.6716 59.3276 32 58.4992 32H51.606C51.3819 32.9962 51.172 33.9948 50.9919 35Z" fill="#E31E24"/>
<path fill-rule="evenodd" clip-rule="evenodd" d="M43 13C43.7558 13 44.3587 13.6166 44.4619 14.3652C44.9166 17.6621 46.9896 20.2839 49.6445 20.96C50.3775 21.1466 51 21.7436 51 22.5C51 23.2564 50.3775 23.8534 49.6445 24.04C46.9896 24.7161 44.9166 27.3379 44.4619 30.6348C44.3587 31.3834 43.7558 32 43 32C42.2442 32 41.6413 31.3834 41.5381 30.6348C41.0834 27.3379 39.0104 24.7161 36.3555 24.04C35.6225 23.8534 35 23.2564 35 22.5C35 21.7436 35.6225 21.1466 36.3555 20.96C39.0104 20.2839 41.0834 17.6621 41.5381 14.3652C41.6413 13.6166 42.2442 13 43 13ZM43 19.2109C42.2477 20.512 41.2512 21.6473 40.0459 22.5C41.2512 23.3527 42.2477 24.488 43 25.7891C43.7523 24.488 44.7488 23.3527 45.9541 22.5C44.7488 21.6473 43.7523 20.512 43 19.2109Z" fill="#00A9B4"/>
<path fill-rule="evenodd" clip-rule="evenodd" d="M12 0C12.8719 0 13.5708 0.709409 13.6562 1.57715C14.2208 7.32115 17.8288 11.901 22.4219 12.7656C23.2832 12.9278 24 13.6235 24 14.5C24 15.3765 23.2832 16.0722 22.4219 16.2344C17.8288 17.099 14.2208 21.6788 13.6562 27.4229C13.5708 28.2906 12.8719 29 12 29C11.1281 29 10.4292 28.2906 10.3438 27.4229C9.77917 21.6788 6.17121 17.099 1.57812 16.2344C0.7168 16.0722 0 15.3765 0 14.5C0 13.6235 0.7168 12.9278 1.57812 12.7656C6.17121 11.901 9.77917 7.32115 10.3438 1.57715C10.4292 0.709409 11.1281 0 12 0ZM12 7.13574C10.6631 10.3039 8.43745 12.963 5.56836 14.5C8.43745 16.037 10.6631 18.6961 12 21.8643C13.3369 18.6961 15.5626 16.037 18.4316 14.5C15.5626 12.963 13.3369 10.3039 12 7.13574Z" fill="#00A9B4"/>
<path d="M58.2314 1.6416C58.6833 1.6416 59.0438 2.00945 59.1055 2.45703C59.1169 2.53978 59.1298 2.62186 59.1445 2.70312C59.2385 3.21999 59.3998 3.70615 59.6162 4.14648C59.6996 4.31617 59.7914 4.47942 59.8906 4.63477C60.1203 4.99455 60.3911 5.31392 60.6934 5.58203C60.7259 5.6109 60.7587 5.63932 60.792 5.66699C61.0684 5.89684 61.3701 6.0845 61.6904 6.22363C61.8568 6.29589 62.0284 6.35563 62.2041 6.40039C62.6422 6.51197 63.0145 6.86823 63.0146 7.32031C63.0146 7.77251 62.6423 8.12961 62.2041 8.24121C62.0284 8.28597 61.8568 8.34475 61.6904 8.41699C61.3701 8.55613 61.0685 8.74472 60.792 8.97461C60.7587 9.00229 60.7259 9.0307 60.6934 9.05957C60.3911 9.32768 60.1203 9.64706 59.8906 10.0068C59.7915 10.162 59.6996 10.3246 59.6162 10.4941C59.3997 10.9345 59.2385 11.4206 59.1445 11.9375C59.1297 12.0189 59.1169 12.1017 59.1055 12.1846C59.0436 12.6319 58.6831 13 58.2314 13C57.78 12.9997 57.4203 12.6318 57.3584 12.1846C57.347 12.1017 57.3341 12.0189 57.3193 11.9375C57.2253 11.4206 57.0641 10.9345 56.8477 10.4941C56.7643 10.3246 56.6723 10.162 56.5732 10.0068C56.3435 9.64706 56.0727 9.32768 55.7705 9.05957C55.738 9.0307 55.7052 9.00229 55.6719 8.97461C55.3954 8.74473 55.0938 8.55613 54.7734 8.41699C54.6071 8.34476 54.4355 8.28596 54.2598 8.24121C53.8216 8.12961 53.4492 7.77251 53.4492 7.32031C53.4494 6.86823 53.8216 6.51197 54.2598 6.40039C54.4355 6.35563 54.6071 6.29588 54.7734 6.22363C55.0937 6.08451 55.3954 5.89683 55.6719 5.66699C55.7052 5.63932 55.738 5.6109 55.7705 5.58203C56.0727 5.31392 56.3435 4.99454 56.5732 4.63477C56.6724 4.47943 56.7642 4.31616 56.8477 4.14648C57.0641 3.70616 57.2254 3.21998 57.3193 2.70312C57.3341 2.62186 57.347 2.53977 57.3584 2.45703C57.4201 2.0096 57.7798 1.64185 58.2314 1.6416Z" fill="#00A9B4"/>
<path d="M51.2705 25.4912C50.9458 26.8181 50.5959 28.0527 50.2715 29.1963L50.2578 29.2422C48.429 35.6883 47.9443 42.5725 47.4551 49.5146V49.5176C47.3829 50.542 47.3101 51.568 47.2334 52.5938C46.9762 56.0318 46.116 58.666 44.958 60.4893C43.8407 62.2483 42.2624 63.4998 40.5342 63.5C38.1595 63.5 36.8408 61.4186 36.1846 59.7793C35.4709 57.9963 35.1563 55.8574 35.1562 54.2227C35.1562 52.765 34.9543 50.3871 34.752 48.3887C34.656 47.4411 34.3867 46.3861 33.8994 45.6152C33.4503 44.9046 32.876 44.5 32.0029 44.5C31.1301 44.5001 30.5565 44.9048 30.1074 45.6152C29.6202 46.3861 29.3508 47.4411 29.2549 48.3887C29.0525 50.3871 28.8506 52.765 28.8506 54.2227C28.8505 55.8574 28.535 57.9963 27.8213 59.7793C27.1651 61.4186 25.8473 63.4999 23.4727 63.5C21.7443 63.5 20.1662 62.2484 19.0488 60.4893C17.8907 58.666 17.0296 56.032 16.7725 52.5938C16.6957 51.5671 16.624 50.54 16.5518 49.5146C16.0907 42.9714 15.6311 36.4803 14.0488 30.3584C14.9529 29.7267 15.5407 28.7022 15.6475 27.6191C15.7066 27.0177 15.8031 26.436 15.9316 25.8779C16.1628 26.7553 16.4011 27.6026 16.6338 28.4229C18.5542 35.1917 19.0618 42.4168 19.5469 49.3311C19.6184 50.3511 19.6896 51.365 19.7646 52.3691C19.995 55.4492 20.7514 57.5746 21.5811 58.8809C22.4515 60.2513 23.2316 60.5 23.4727 60.5C23.8123 60.4999 24.4332 60.1737 25.0371 58.665C25.5835 57.3002 25.8505 55.5507 25.8506 54.2227C25.8506 52.5922 26.0695 50.0709 26.2705 48.0859C26.3918 46.8881 26.7426 45.3239 27.5713 44.0127C28.4381 42.6412 29.8761 41.5001 32.0029 41.5C34.1298 41.5 35.5677 42.6412 36.4346 44.0127C37.2634 45.3239 37.615 46.888 37.7363 48.0859C37.9374 50.0709 38.1562 52.5923 38.1562 54.2227C38.1563 55.5507 38.4234 57.3002 38.9697 58.665C39.5737 60.1737 40.1946 60.5 40.5342 60.5C40.7757 60.4997 41.5558 60.2506 42.4258 58.8809C43.2554 57.5746 44.0119 55.4491 44.2422 52.3691C44.3172 51.3661 44.3885 50.3539 44.46 49.335V49.3301C44.945 42.4159 45.4517 35.1917 47.3721 28.4229C47.4078 28.2969 47.4435 28.1702 47.4795 28.043C47.5199 27.9807 47.5605 27.9192 47.6025 27.8594C48.2312 26.9647 49.0376 26.3456 49.8701 26.0596C49.9595 26.0289 50.0489 26.0014 50.1387 25.9785L50.3887 25.9053C50.396 25.9029 50.4028 25.899 50.4102 25.8965C50.4308 25.8895 50.451 25.8814 50.4717 25.874C50.5383 25.8503 50.6051 25.8247 50.6719 25.7969C50.7048 25.7831 50.7376 25.7686 50.7705 25.7539C50.8224 25.7306 50.8742 25.7064 50.9258 25.6807C50.9647 25.6613 51.0033 25.6409 51.042 25.6201C51.0928 25.5927 51.1432 25.564 51.1934 25.5342C51.2186 25.5192 51.2455 25.5068 51.2705 25.4912Z" fill="#1A73DA"/>
<path d="M40.5342 0.5C44.1666 0.500126 47.2118 2.25373 49.3027 5.0918C51.374 7.90324 52.5029 11.7538 52.5029 16.0742C52.5029 17.5716 52.403 18.9965 52.2363 20.3496C52.1571 20.2529 52.0717 20.1623 51.9844 20.0752C51.9432 20.034 51.9002 19.9951 51.8574 19.9561C51.7809 19.8864 51.7028 19.8196 51.6221 19.7568C51.5946 19.7354 51.568 19.713 51.54 19.6924C51.4927 19.6575 51.4439 19.6253 51.3955 19.5928C51.3613 19.5697 51.3276 19.5463 51.293 19.5244C51.2553 19.5006 51.2168 19.4785 51.1787 19.4561C51.1294 19.4271 51.0801 19.3987 51.0303 19.3721C50.993 19.3522 50.9555 19.3331 50.918 19.3145C50.869 19.2901 50.8198 19.2672 50.7705 19.2451C50.7337 19.2286 50.697 19.2125 50.6602 19.1973C50.595 19.1703 50.5299 19.1451 50.4648 19.1221C50.4455 19.1153 50.4265 19.108 50.4072 19.1016C50.401 19.0995 50.3949 19.0968 50.3887 19.0947L50.1387 19.0215C50.0491 18.9987 49.9603 18.97 49.8711 18.9395C49.7411 18.8948 49.6116 18.8429 49.4834 18.7822C49.4514 18.7671 49.4205 18.7495 49.3887 18.7334C49.4617 17.8745 49.5029 16.9889 49.5029 16.0742C49.5029 12.2466 48.5 9.05964 46.8877 6.87109C45.2951 4.70937 43.1055 3.50012 40.5342 3.5C39.7376 3.5 38.9378 3.72101 37.7617 4.0459C37.5973 4.09131 37.4252 4.13834 37.2451 4.1875C35.8456 4.56944 34.142 4.98145 32.0029 4.98145C29.8642 4.98141 28.1611 4.5694 26.7617 4.1875C26.5817 4.13837 26.4094 4.09128 26.2451 4.0459C25.069 3.72099 24.2693 3.50002 23.4727 3.5C21.0039 3.5 18.889 4.61611 17.3145 6.61816C16.7752 5.7121 16.3387 4.68413 16.0381 3.55566C18.009 1.63476 20.5508 0.5 23.4727 0.5C24.71 0.500017 25.9448 0.84544 27.0664 1.15918C27.2304 1.20505 27.392 1.25061 27.5508 1.29395C28.8655 1.65273 30.2645 1.98141 32.0029 1.98145C33.7414 1.98145 35.1404 1.65273 36.4551 1.29395C36.6137 1.25067 36.7757 1.20499 36.9395 1.15918C38.0611 0.84542 39.2968 0.5 40.5342 0.5Z" fill="#1A73DA"/>
</svg>
