<svg width="64" height="64" viewBox="0 0 64 64" fill="none" xmlns="http://www.w3.org/2000/svg">
<path d="M20.2474 20.833C19.8765 19.3185 19.5488 17.5932 19.5488 15.6186C19.5488 12.5204 20.3818 9.9271 21.9647 9.08447" stroke="#00A9B4" stroke-width="3" stroke-linecap="round"/>
<path d="M14.5231 35H5.5C4.67157 35 4 34.3284 4 33.5C4 32.6716 4.67157 32 5.5 32H14.1394L14.5231 35Z" fill="#E31E24"/>
<path d="M49.4769 35H58.5C59.3284 35 60 34.3284 60 33.5C60 32.6716 59.3284 32 58.5 32H49.8606L49.4769 35Z" fill="#E31E24"/>
<path d="M18 28L18.8023 35.2209C18.9149 36.2337 19.771 37 20.7901 37H43.2099C44.229 37 45.0851 36.2337 45.1977 35.2209L46 28" stroke="#1A73DA" stroke-width="3"/>
<path d="M24 37.4949L26.5772 58.9715C26.8184 60.9818 28.5239 62.4949 30.5487 62.4949H33.4513C35.4761 62.4949 37.1816 60.9818 37.4228 58.9715L40 37.4949" stroke="#1A73DA" stroke-width="3"/>
<path d="M42.2409 41.6719L22.2676 45.9232" stroke="#1A73DA" stroke-width="3" stroke-linecap="round"/>
<path d="M22.8438 51.7765L41.6735 47.7686" stroke="#1A73DA" stroke-width="3" stroke-linecap="round"/>
<path d="M23.6797 57.575L40.4227 54.0112" stroke="#1A73DA" stroke-width="3" stroke-linecap="round"/>
<path fill-rule="evenodd" clip-rule="evenodd" d="M47.4737 6.16132C45.9998 4.03644 44.1048 3 41.9796 3C41.3711 3 40.7554 3.17959 39.4515 3.55992C37.3387 4.17617 34.2152 4.65637 32 4.65637C29.7848 4.65637 26.6613 4.17617 24.5485 3.55993C23.2446 3.17959 22.6289 3 22.0204 3C19.8952 3 18.0002 4.03644 16.5263 6.16132C15.0146 8.34074 14 11.6371 14 15.7355C14 19.6168 14.6425 23.0419 15.4059 26.1591C15.5361 26.6905 15.9803 27 16.4228 27H47.5772C48.0197 27 48.4639 26.6905 48.5941 26.1592C49.3575 23.0419 50 19.6168 50 15.7355C50 11.6371 48.9854 8.34074 47.4737 6.16132ZM41.9796 0C48.5102 0 53 6.62547 53 15.7355C53 19.953 52.3001 23.6381 51.5079 26.8728C51.0537 28.7277 49.4208 30 47.5772 30H16.4228C14.5792 30 12.9463 28.7277 12.492 26.8728C11.6998 23.6381 11 19.953 11 15.7355C11 6.62547 15.4898 0 22.0204 0C23.0894 0 24.1583 0.31558 25.3631 0.671243C26.9184 1.1304 29.7 1.65637 32 1.65637C34.3 1.65637 37.0816 1.1304 38.6369 0.671243C39.8417 0.31558 40.9106 0 41.9796 0Z" fill="#00A9B4"/>
<path d="M14.5234 35H5.5C4.67157 35 4 34.3284 4 33.5C4 32.6716 4.67157 32 5.5 32H14.1396L14.5234 35Z" fill="#E31E24"/>
<path d="M58.5 32C59.3284 32 60 32.6716 60 33.5C60 34.3284 59.3284 35 58.5 35H49.4766L49.8604 32H58.5Z" fill="#E31E24"/>
<path fill-rule="evenodd" clip-rule="evenodd" d="M47.4912 28.166L46.6885 35.3867C46.4914 37.1591 44.9933 38.5 43.21 38.5H41.3916L41.167 40.3662L41.9277 40.2051L42.0791 40.1807C42.8349 40.0983 43.5452 40.5998 43.707 41.3594C43.8795 42.1696 43.362 42.9662 42.5518 43.1387L40.79 43.5137L40.4316 46.499L41.3623 46.3018L41.5137 46.2773C42.2695 46.1949 42.9798 46.6965 43.1416 47.4561C43.314 48.2663 42.7966 49.0629 41.9863 49.2354L40.0537 49.6465L39.6953 52.6328L40.1113 52.5449C40.9215 52.3725 41.7181 52.8891 41.8906 53.6992C42.0628 54.5092 41.5462 55.3059 40.7363 55.4785L39.3174 55.7803L38.9141 59.1504C38.5822 61.9145 36.2372 63.9951 33.4531 63.9951H30.5508C27.7668 63.9951 25.4217 61.9145 25.0898 59.1504L25.0498 58.8174L23.9932 59.043C23.183 59.2154 22.3865 58.6977 22.2139 57.8877C22.0414 57.0775 22.5581 56.281 23.3682 56.1084L24.6904 55.8262L24.3506 52.9893L23.1572 53.2441C22.347 53.4166 21.5505 52.899 21.3779 52.0889C21.2055 51.2787 21.7221 50.4822 22.5322 50.3096L23.9912 49.998L23.6514 47.1621L22.5791 47.3906C21.7688 47.5631 20.9723 47.0456 20.7998 46.2354C20.6274 45.4252 21.144 44.6286 21.9541 44.4561L23.292 44.1709L22.6123 38.5H20.79C19.0067 38.5 17.5086 37.1591 17.3115 35.3867L16.5088 28.166L19.4912 27.834L20.293 35.0557C20.3213 35.3087 20.5354 35.5 20.79 35.5H43.21C43.4646 35.5 43.6787 35.3087 43.707 35.0557L44.5088 27.834L47.4912 28.166ZM27.9951 58.1904L28.0684 58.793C28.2192 60.0493 29.2854 60.9951 30.5508 60.9951H33.4531C34.7185 60.9951 35.7847 60.0493 35.9355 58.793L36.2168 56.4404L27.9951 58.1904ZM27.2959 52.3623L27.6367 55.1992L36.5947 53.293L36.9531 50.3066L27.2959 52.3623ZM26.5967 46.5352L26.9365 49.3711L37.3311 47.1592L37.6895 44.1729L26.5967 46.5352ZM26.2373 43.5439L38.0674 41.0264L38.3711 38.5H25.6328L26.2373 43.5439Z" fill="#1A73DA"/>
<path d="M21.2578 7.75977C21.9889 7.37067 22.8978 7.64795 23.2871 8.37891C23.6763 9.11004 23.3989 10.0188 22.668 10.4082C22.3411 10.5822 21.9174 11.0439 21.5742 12.0078C21.2405 12.9454 21.0469 14.1898 21.0469 15.6182C21.0469 17.4245 21.3457 19.02 21.7021 20.4756L21.7314 20.627C21.8365 21.3796 21.3565 22.1042 20.6025 22.2891C19.7979 22.4861 18.9852 21.9941 18.7881 21.1895L18.6465 20.5859C18.3202 19.1477 18.0469 17.4928 18.0469 15.6182C18.0469 13.9487 18.2696 12.3461 18.748 11.002C19.217 9.68463 20.0021 8.42825 21.2578 7.75977Z" fill="#00A9B4"/>
<path fill-rule="evenodd" clip-rule="evenodd" d="M41.9795 0C48.5101 0 53 6.6254 53 15.7354C53 19.9529 52.3 23.6383 51.5078 26.873C51.0534 28.7278 49.4206 30 47.5771 30H16.4229C14.5794 30 12.9466 28.7278 12.4922 26.873C11.7 23.6383 11 19.9529 11 15.7354C11 6.6254 15.4899 0 22.0205 0C23.0894 1.97072e-05 24.1586 0.315246 25.3633 0.670898C26.9186 1.13005 29.7 1.65625 32 1.65625C34.3 1.65625 37.0814 1.13005 38.6367 0.670898C39.8414 0.315246 40.9106 1.91442e-05 41.9795 0ZM41.9795 3C41.3711 3.00002 40.7551 3.17926 39.4512 3.55957C37.3384 4.17579 34.2152 4.65625 32 4.65625C29.7848 4.65625 26.6616 4.17579 24.5488 3.55957C23.2449 3.17926 22.6289 3.00002 22.0205 3C19.8954 3 18.0002 4.03637 16.5264 6.16113C15.0147 8.34053 14 11.637 14 15.7354C14 19.6167 14.6428 23.0419 15.4062 26.1592C15.5364 26.6904 15.9804 27 16.4229 27H47.5771C48.0196 27 48.4636 26.6904 48.5938 26.1592C49.3572 23.0419 50 19.6167 50 15.7354C50 11.637 48.9853 8.34053 47.4736 6.16113C45.9998 4.03637 44.1046 3 41.9795 3Z" fill="#00A9B4"/>
</svg>
