<svg width="64" height="64" viewBox="0 0 64 64" fill="none" xmlns="http://www.w3.org/2000/svg">
<path d="M21.25 7.75977C21.9811 7.37067 22.8899 7.64795 23.2793 8.37891C23.6685 9.11004 23.3911 10.0188 22.6602 10.4082C22.3333 10.5822 21.9096 11.0439 21.5664 12.0078C21.2327 12.9454 21.0391 14.1898 21.0391 15.6182C21.0391 17.4245 21.3379 19.02 21.6943 20.4756C21.8914 21.2801 21.3991 22.0918 20.5947 22.2891C19.7901 22.4861 18.9774 21.9941 18.7803 21.1895C18.395 19.6164 18.0391 17.7607 18.0391 15.6182C18.0391 13.9487 18.2618 12.3461 18.7402 11.002C19.2092 9.68463 19.9943 8.42825 21.25 7.75977Z" fill="#00A9B4"/>
<path fill-rule="evenodd" clip-rule="evenodd" d="M41.9795 0C48.5101 0 53 6.6254 53 15.7354C53 19.9529 52.3 23.6383 51.5078 26.873C51.0534 28.7278 49.4206 30 47.5771 30H16.4229C14.5794 30 12.9466 28.7278 12.4922 26.873C11.7 23.6383 11 19.9529 11 15.7354C11 6.6254 15.4899 0 22.0205 0C23.0894 1.97073e-05 24.1586 0.315246 25.3633 0.670898C26.9186 1.13005 29.7 1.65625 32 1.65625C34.3 1.65625 37.0814 1.13005 38.6367 0.670898C39.8414 0.315246 40.9106 1.91442e-05 41.9795 0ZM41.9795 3C41.3711 3.00002 40.7551 3.17926 39.4512 3.55957C37.3384 4.17579 34.2152 4.65625 32 4.65625C29.7848 4.65625 26.6616 4.17579 24.5488 3.55957C23.2449 3.17926 22.6289 3.00002 22.0205 3C19.8954 3 18.0002 4.03637 16.5264 6.16113C15.0147 8.34053 14 11.637 14 15.7354C14 19.6167 14.6428 23.0419 15.4062 26.1592C15.5364 26.6904 15.9804 27 16.4229 27H47.5771C48.0196 27 48.4636 26.6904 48.5938 26.1592C49.3572 23.0419 50 19.6167 50 15.7354C50 11.637 48.9853 8.34053 47.4736 6.16113C45.9998 4.03637 44.1046 3 41.9795 3Z" fill="#00A9B4"/>
<path d="M17.5168 32C18.7305 37.7008 19.1456 43.6211 19.5461 49.3301C19.6177 50.3506 19.6888 51.3646 19.7639 52.3691C19.9942 55.449 20.7507 57.5746 21.5803 58.8809C22.4503 60.2505 23.2304 60.4997 23.4719 60.5C23.8115 60.5 24.4324 60.1737 25.0364 58.665C25.5827 57.3002 25.8498 55.5507 25.8499 54.2227C25.8499 52.5923 26.0688 50.0709 26.2698 48.0859C26.3911 46.888 26.7427 45.3239 27.5715 44.0127C28.4384 42.6412 29.8762 41.5 32.0032 41.5C34.13 41.5001 35.568 42.6412 36.4348 44.0127C37.2635 45.3239 37.6143 46.8881 37.7356 48.0859C37.9366 50.0709 38.1565 52.5922 38.1565 54.2227C38.1566 55.5507 38.4236 57.3002 38.97 58.665C39.5738 60.1733 40.1939 60.4999 40.5334 60.5C40.7745 60.5 41.5546 60.2513 42.425 58.8809C43.2547 57.5746 44.0111 55.4492 44.2415 52.3691C44.3166 51.3646 44.3876 50.3506 44.4592 49.3301C44.8597 43.6211 45.2758 37.7008 46.4895 32H49.5598C48.2924 37.635 47.8754 43.5534 47.4553 49.5146L47.4543 49.5156C47.3821 50.5406 47.3104 51.5675 47.2336 52.5938C46.9765 56.032 46.1154 58.666 44.9573 60.4893C43.8399 62.2484 42.2618 63.5 40.5334 63.5C38.1588 63.4999 36.841 61.4186 36.1848 59.7793C35.4711 57.9963 35.1565 55.8574 35.1565 54.2227C35.1565 52.765 34.9536 50.3871 34.7512 48.3887C34.6553 47.4411 34.3859 46.3861 33.8987 45.6152C33.4496 44.9048 32.876 44.5001 32.0032 44.5C31.1301 44.5 30.5558 44.9046 30.1067 45.6152C29.6194 46.3861 29.3501 47.4411 29.2542 48.3887C29.0518 50.3871 28.8499 52.765 28.8499 54.2227C28.8498 55.8574 28.5352 57.9963 27.8215 59.7793C27.1653 61.4186 25.8466 63.5 23.4719 63.5C21.7437 63.4998 20.1654 62.2483 19.0481 60.4893C17.8901 58.666 17.0299 56.0318 16.7727 52.5938C16.6959 51.5671 16.6233 50.54 16.551 49.5146C16.131 43.5534 15.7139 37.635 14.4465 32H17.5168Z" fill="#1A73DA"/>
<path d="M36.7932 19.5C39.1599 19.5 40.8468 21.5602 40.8469 23.8018V25H37.8469V23.8018C37.8468 22.9486 37.2468 22.5 36.7932 22.5H27.2151C26.7615 22.5 26.1615 22.9486 26.1614 23.8018V25H23.1614V23.8018C23.1615 21.5602 24.8484 19.5 27.2151 19.5H36.7932Z" fill="#1A73DA"/>
<path d="M12.3932 32H5.5C4.67157 32 4 32.6716 4 33.5C4 34.3284 4.67158 35 5.5 35H13.0072C12.8272 33.9948 12.6172 32.9962 12.3932 32Z" fill="#E31E24"/>
<path d="M50.9919 35H58.4992C59.3276 35 59.9992 34.3284 59.9992 33.5C59.9992 32.6716 59.3276 32 58.4992 32H51.606C51.3819 32.9962 51.172 33.9948 50.9919 35Z" fill="#E31E24"/>
</svg>
