<svg width="64" height="64" viewBox="0 0 64 64" fill="none" xmlns="http://www.w3.org/2000/svg">
<path d="M49.5 20H46.5V23.5L43 23.5V26.5H46.5V30H49.5V26.5H53V23.5L49.5 23.5V20Z" fill="#E31E24"/>
<path fill-rule="evenodd" clip-rule="evenodd" d="M48 6.5C51.0376 6.5 53.5 8.96243 53.5 12H64V38H32V12H42.5C42.5 8.96243 44.9624 6.5 48 6.5ZM35 35H61V15H35V35ZM48 9.5C46.6193 9.5 45.5 10.6193 45.5 12H50.5C50.5 10.6193 49.3807 9.5 48 9.5Z" fill="#00A9B4"/>
<path d="M40.5303 0.5C43.9262 0.5 46.8094 2.03236 48.8789 4.55078C48.5907 4.51715 48.2972 4.5 48 4.5C46.9867 4.5 46.0204 4.7012 45.1387 5.06543C43.8195 4.04801 42.2611 3.5 40.5303 3.5C39.7337 3.50006 38.9339 3.72103 37.7578 4.0459C37.5936 4.09125 37.4221 4.13841 37.2422 4.1875C35.8426 4.56944 34.139 4.98145 32 4.98145C29.861 4.98145 28.1574 4.56944 26.7578 4.1875C26.5778 4.13837 26.4055 4.09128 26.2412 4.0459C25.0654 3.72108 24.2662 3.50006 23.4697 3.5C20.8984 3.5 18.7089 4.70942 17.1162 6.87109C15.5038 9.05964 14.5 12.2465 14.5 16.0742C14.5 20.889 15.6317 24.9011 16.6309 28.4229C18.5513 35.1917 19.0579 42.4159 19.543 49.3301C19.6146 50.3506 19.6856 51.3646 19.7607 52.3691C19.9911 55.4492 20.7484 57.5746 21.5781 58.8809C22.4486 60.2513 23.2287 60.5 23.4697 60.5C23.8094 60.4998 24.4295 60.1731 25.0332 58.665C25.5795 57.3002 25.8466 55.5507 25.8467 54.2227C25.8467 52.5923 26.0656 50.0709 26.2666 48.0859C26.3879 46.8881 26.7396 45.3239 27.5684 44.0127C28.4353 42.6412 29.873 41.5 32 41.5C34.127 41.5 35.5647 42.6412 36.4316 44.0127C37.2604 45.3239 37.6121 46.8881 37.7334 48.0859C37.9344 50.0709 38.1533 52.5923 38.1533 54.2227C38.1534 55.5507 38.4205 57.3002 38.9668 58.665C39.5705 60.1731 40.1906 60.4998 40.5303 60.5C40.7713 60.5 41.5514 60.2513 42.4219 58.8809C43.2516 57.5746 44.0089 55.4492 44.2393 52.3691C44.3143 51.3661 44.3846 50.3539 44.4561 49.335L44.457 49.332V49.3301C44.6725 46.2588 44.8923 43.1265 45.2383 40H48.2568C47.9018 43.1344 47.6774 46.3185 47.4521 49.5146V49.5176C47.38 50.542 47.3072 51.568 47.2305 52.5938C46.9733 56.032 46.1122 58.666 44.9541 60.4893C43.8368 62.2484 42.2586 63.5 40.5303 63.5C38.1558 63.4998 36.8378 61.4186 36.1816 59.7793C35.468 57.9963 35.1534 55.8574 35.1533 54.2227C35.1533 52.765 34.9504 50.3871 34.748 48.3887C34.6521 47.4411 34.3828 46.3861 33.8955 45.6152C33.4464 44.9048 32.8729 44.5 32 44.5C31.1271 44.5 30.5536 44.9048 30.1045 45.6152C29.6172 46.3861 29.3479 47.4411 29.252 48.3887C29.0496 50.3871 28.8467 52.765 28.8467 54.2227C28.8466 55.8574 28.532 57.9963 27.8184 59.7793C27.1622 61.4185 25.8442 63.4998 23.4697 63.5C21.7414 63.5 20.1632 62.2484 19.0459 60.4893C17.8878 58.666 17.0267 56.032 16.7695 52.5938C16.6928 51.5671 16.6201 50.54 16.5479 49.5146C16.0587 42.5724 15.5739 35.6884 13.7451 29.2422L13.7324 29.1963C12.7378 25.6905 11.5 21.3296 11.5 16.0742C11.5 11.7539 12.629 7.90323 14.7002 5.0918C16.7912 2.25363 19.8371 0.5 23.4697 0.5C24.707 0.500063 25.9419 0.845449 27.0635 1.15918C27.2275 1.20506 27.389 1.2506 27.5479 1.29395C28.8626 1.65275 30.2615 1.98145 32 1.98145C33.7385 1.98145 35.1374 1.65275 36.4521 1.29395C36.611 1.2506 36.7725 1.20506 36.9365 1.15918C38.0581 0.845448 39.293 0.500063 40.5303 0.5Z" fill="#1A73DA"/>
<path d="M21.7109 7.75977C22.4421 7.37067 23.3509 7.64795 23.7402 8.37891C24.1294 9.11004 23.8521 10.0188 23.1211 10.4082C22.7942 10.5822 22.3706 11.0439 22.0273 12.0078C21.6936 12.9454 21.5 14.1898 21.5 15.6182C21.5 17.4245 21.7988 19.02 22.1553 20.4756C22.3523 21.2801 21.86 22.0918 21.0557 22.2891C20.251 22.4861 19.4383 21.9941 19.2412 21.1895C18.856 19.6164 18.5 17.7607 18.5 15.6182C18.5 13.9487 18.7227 12.3461 19.2012 11.002C19.6702 9.68463 20.4552 8.42825 21.7109 7.75977Z" fill="#1A73DA"/>
<path d="M12.3932 32H5.5C4.67157 32 4 32.6716 4 33.5C4 34.3284 4.67158 35 5.5 35H13.0072C12.8272 33.9948 12.6172 32.9962 12.3932 32Z" fill="#E31E24"/>
</svg>
