<svg width="64" height="64" viewBox="0 0 64 64" fill="none" xmlns="http://www.w3.org/2000/svg">
<path d="M45.7876 15.4619C52.6963 19.9074 57.2777 27.6681 57.2778 36.5C57.2778 40.0938 56.5182 43.5152 55.1499 46.6074L52.4067 45.3936C53.6091 42.6763 54.2778 39.6677 54.2778 36.5C54.2777 29.4396 50.9517 23.1549 45.7769 19.1279V22C45.7769 26.1804 43.9438 29.9318 41.0386 32.4971C41.1322 37.7424 41.734 40.1184 42.7769 41L40.8394 43.291C38.9816 41.7202 38.3637 38.6496 38.1108 34.4873C36.2087 35.454 34.0567 36 31.7769 36C29.6839 36 27.6986 35.54 25.9155 34.7168C25.6449 38.7466 25.0377 41.7492 23.2144 43.291L21.2769 41C22.2925 40.1414 22.8633 37.8425 22.9927 32.9004C19.8121 30.334 17.7769 26.4051 17.7769 22V20.1934C15.5682 23.41 14.2769 27.3037 14.2769 31.5C14.2769 35.8385 15.6566 39.8509 18.0015 43.127L15.562 44.873C12.8647 41.1046 11.2769 36.4852 11.2769 31.5C11.277 25.2704 13.7556 19.6169 17.7769 15.4766V15.4619H20.7769V22C20.7769 28.0751 25.7017 33 31.7769 33C37.403 33 42.0388 28.7757 42.6938 23.3262C41.7365 23.4399 40.7628 23.5 39.7759 23.5C33.4199 23.5 27.6261 21.0777 23.2729 17.1084L24.7739 15.4619H25.9468C29.6859 18.6066 34.5081 20.5 39.7759 20.5C40.795 20.5 41.7967 20.4278 42.7769 20.291V15.4619H45.7876Z" fill="#1A73DA"/>
<path d="M46 2V17H18V2H46ZM21 14H43V5H21V14Z" fill="#12CAE3"/>
<path fill-rule="evenodd" clip-rule="evenodd" d="M41.7012 39.2061C42.3593 40.077 43.5551 41.1163 44.1602 41.3057C45.6886 41.7838 49.3413 42.6664 52.4863 43.4004C56.1028 44.2445 58.9264 47.1098 59.6816 50.7715L62 62.0117H32.002V61.4893L31.998 61.4951V62.0117H2L4.31836 50.7715C5.07364 47.1098 7.89715 44.2445 11.5137 43.4004C14.6587 42.6664 18.3114 41.7838 19.8398 41.3057C20.4125 41.1265 21.4797 40.227 22.2139 39.3994L22.3242 39.2471L22.334 39.2646L22.3379 39.2617L22.3408 39.2773L31.8447 56.0811L35.6152 49.959L41.6758 39.2471L41.6846 39.2588L41.7012 39.2061ZM51 52.2295H37.7061L33.5283 59.0117H58.3271L56.7529 51.3789C56.2369 48.8773 54.304 46.9047 51.8096 46.3223C49.8001 45.8533 47.5072 45.3051 45.6904 44.8369L51 52.2295ZM18.3086 44.8369C16.492 45.3051 14.1996 45.8534 12.1904 46.3223C9.69601 46.9047 7.76313 48.8773 7.24707 51.3789L5.67285 59.0117H30.0928L26.2578 52.2295H13L18.3086 44.8369ZM18.8145 49.2295H24.5605L22.0283 44.752L18.8145 49.2295ZM39.4395 49.2295H45.1855L41.9707 44.752L39.4395 49.2295Z" fill="#12CAE3"/>
</svg>
