<svg width="56" height="56" viewBox="0 0 56 56" fill="none" xmlns="http://www.w3.org/2000/svg">
<path d="M8.95532 36.2012C9.51303 37.0463 10.1224 37.8542 10.7795 38.6201L5.89478 43.5059L10.7737 44.9912L12.259 49.8691L17.8635 44.2627C18.8091 44.759 19.7912 45.1949 20.8059 45.5635L12.0227 54.3486C11.4889 54.8825 10.5785 54.6548 10.3586 53.9326L8.36841 47.3955L1.8313 45.4053C1.10942 45.1853 0.881671 44.2749 1.41528 43.7412L8.95532 36.2012ZM54.5852 43.7412C55.119 44.275 54.8913 45.1854 54.1692 45.4053L47.6331 47.3955L45.6428 53.9326C45.423 54.6548 44.5125 54.8824 43.9788 54.3486L35.6858 46.0547C36.7532 45.7457 37.7897 45.3646 38.7903 44.917L43.7424 49.8691L45.2278 44.9912L50.1067 43.5059L46.2668 39.666C46.9637 38.9442 47.6163 38.1795 48.219 37.375L54.5852 43.7412Z" fill="#1A73DA"/>
<path d="M48 23C48 12.5066 39.4934 4 29 4C18.5066 4 10 12.5066 10 23C10 33.4934 18.5066 42 29 42V45C16.8497 45 7 35.1503 7 23C7 10.8497 16.8497 1 29 1C41.1503 1 51 10.8497 51 23C51 35.1503 41.1503 45 29 45V42C39.4934 42 48 33.4934 48 23Z" fill="#00A9B4"/>
<path d="M32.9346 17.584L41.7344 18.8623L35.3662 25.0693L36.8701 33.832L29 29.6943L21.1299 33.832L22.6328 25.0693L16.2656 18.8623L25.0645 17.584L29 9.61035L32.9346 17.584ZM27.0576 20.3262L22.7129 20.957L25.8564 24.0215L25.1133 28.3477L29 26.3057L32.8857 28.3477L32.1436 24.0215L35.2861 20.957L30.9424 20.3262L29 16.3887L27.0576 20.3262Z" fill="#00A9B4"/>
</svg>
