<svg width="20" height="20" viewBox="0 0 20 20" fill="none" xmlns="http://www.w3.org/2000/svg">
<circle cx="10" cy="10" r="10" fill="#219AD6"/>
<path d="M8.58497 11.2999C8.07897 11.8014 8.17988 12.1386 8.58497 12.519C8.99005 12.8994 11.3491 14.6806 12.1831 15.1561C13.0171 15.6317 13.5731 15.3723 13.7001 14.4212C13.7001 14.4212 14.8598 6.41471 14.971 5.52414C15.0822 4.63357 14.6374 4.40877 13.7478 4.78921C12.8582 5.16964 4.30379 9.04319 3.55716 9.38039C2.81054 9.7176 2.94557 10.2191 3.29505 10.3574C3.64453 10.4958 4.60561 10.8416 5.19338 11.0318C5.78115 11.2221 6.36098 11.2134 6.76606 10.9021C7.17114 10.5909 10.6422 8.06616 11.0472 7.75489C11.4523 7.44362 11.8495 7.23611 11.9924 7.30528C12.1354 7.37445 11.9607 7.78947 11.6509 8.11803C11.3411 8.44659 9.09096 10.7984 8.58497 11.2999Z" fill="white"/>
</svg>
