<svg width="20" height="20" viewBox="0 0 20 20" fill="none" xmlns="http://www.w3.org/2000/svg">
<path fill-rule="evenodd" clip-rule="evenodd" d="M10 0C4.4769 0 0 4.4769 0 10C0 11.8893 0.524437 13.6564 1.43522 15.1633L0.175253 19.9934L5.16596 18.756C6.59852 19.5486 8.24615 20 10 20C15.5231 20 20 15.5218 20 10C20.0013 4.4769 15.5231 0 10 0Z" fill="#2EBE50"/>
<path fill-rule="evenodd" clip-rule="evenodd" d="M14.6897 12.273C14.4388 12.1363 13.208 11.4711 12.977 11.3769C12.746 11.2826 12.5774 11.2348 12.3982 11.4831C12.2189 11.7313 11.7078 12.289 11.5524 12.4536C11.3971 12.6182 11.2471 12.6342 10.9961 12.4961C10.7465 12.3593 9.93401 12.0593 8.99137 11.1525C8.2585 10.4475 7.77655 9.59247 7.63715 9.33224C7.49774 9.07069 7.64909 8.94988 7.76858 8.81578C7.88276 8.687 8.03545 8.52635 8.16821 8.38296C8.30098 8.23957 8.38994 8.11876 8.43906 7.9674C8.49881 7.78684 8.49349 7.64876 8.43375 7.51998C8.374 7.38987 7.9372 6.10468 7.71813 5.59619C7.54952 5.20452 7.31718 5.17 7.16052 5.14876C7.01315 5.12885 6.84187 5.11557 6.67193 5.10893C6.50199 5.10229 6.22318 5.1554 5.97889 5.40235C5.73593 5.64929 5.05217 6.24143 5.0057 7.49873C4.95924 8.75471 5.82754 10.0027 5.94835 10.1766C6.06917 10.3519 7.60794 13.0749 10.1637 14.1942C11.2338 14.6628 11.8591 14.8806 12.2588 14.9722C12.8137 15.0983 13.6143 14.8407 13.8918 14.708C14.3379 14.4942 14.8265 14.1596 14.9725 13.7985C15.2075 13.2104 15.2261 12.6992 15.1664 12.5903C15.1079 12.4801 14.9406 12.4098 14.6897 12.273Z" fill="white"/>
</svg>
