<svg width="20" height="20" viewBox="0 0 20 20" fill="none" xmlns="http://www.w3.org/2000/svg">
<path d="M2.29044 2.88823C2.28985 5.99431 3.82524 10.0793 6.93251 13.1866C10.0398 16.2938 14.007 17.7115 17.1131 17.7109C18.0578 17.7107 18.7633 16.9312 18.8961 15.9959L18.8961 13.4462C18.9404 13.1346 18.7199 12.8482 18.4084 12.803C17.1131 12.5496 15.9034 12.0901 14.2413 11.3279C13.9798 11.208 13.6686 11.3004 13.5189 11.546L12.6618 12.9529C11.5685 12.313 10.5063 11.4987 9.52674 10.5191C8.54717 9.53955 7.68833 8.43285 7.04841 7.33954L8.45529 6.48239C8.70095 6.33272 8.79331 6.02148 8.67341 5.75999C7.91124 4.09788 7.45166 2.88823 7.19831 1.59288C7.15312 1.28146 6.86669 1.06094 6.55513 1.10519L4.00542 1.10519C3.0701 1.23801 2.29062 1.94352 2.29044 2.88823Z" stroke="#00A9B4" stroke-width="1.5"/>
</svg>
