<svg width="64" height="64" viewBox="0 0 64 64" fill="none" xmlns="http://www.w3.org/2000/svg">
<path d="M31.998 20.5518C33.787 20.5518 35.2371 22.0021 35.2373 23.791C35.2373 25.58 33.7871 27.0303 31.998 27.0303C30.209 27.0302 28.7588 25.58 28.7588 23.791C28.759 22.0021 30.2091 20.5518 31.998 20.5518Z" fill="#1A73DA"/>
<path d="M26.0625 17.3125C26.9568 17.3127 27.6816 18.0383 27.6816 18.9326C27.6815 19.8269 26.9567 20.5515 26.0625 20.5518C25.1681 20.5518 24.4425 19.827 24.4424 18.9326C24.4424 18.0381 25.168 17.3125 26.0625 17.3125Z" fill="#1A73DA"/>
<path d="M37.9414 17.3125C38.8357 17.3127 39.5605 18.0383 39.5605 18.9326C39.5604 19.8269 38.8356 20.5515 37.9414 20.5518C37.047 20.5518 36.3214 19.827 36.3213 18.9326C36.3213 18.0381 37.0469 17.3125 37.9414 17.3125Z" fill="#1A73DA"/>
<path fill-rule="evenodd" clip-rule="evenodd" d="M28.1602 41.0798C26.699 41.0798 25.7097 42.1551 25.7097 43.2386C25.7097 43.467 25.8264 43.9325 26.2302 44.6413C26.6151 45.3171 27.1848 46.0817 27.889 46.8687C29.0851 48.2056 30.5801 49.5084 31.999 50.4599C33.4173 49.5085 34.911 48.206 36.1059 46.8693C36.8093 46.0823 37.3783 45.3178 37.7628 44.642C38.1661 43.9332 38.2827 43.4675 38.2827 43.2386C38.2827 42.1551 37.2934 41.0798 35.8322 41.0798C34.5698 41.0798 33.7969 41.7912 33.3732 42.334C32.9496 42.8769 32.5645 43.1236 31.999 43.1236C31.4335 43.1236 31.0204 42.7841 30.625 42.334C30.2295 41.8839 29.425 41.0798 28.1602 41.0798ZM22.7097 43.2386C22.7097 40.2856 25.263 38.0798 28.1602 38.0798C29.496 38.0798 30.9194 38.5034 31.9983 39.3631C33.0749 38.5039 34.4953 38.0798 35.8322 38.0798C38.7294 38.0798 41.2827 40.2856 41.2827 43.2386C41.2827 44.2363 40.8709 45.2458 40.3703 46.1256C39.8509 47.0385 39.1406 47.9758 38.3425 48.8686C36.7512 50.6488 34.688 52.3879 32.7613 53.5248C32.7613 53.5248 32.3626 53.7805 31.999 53.7805C31.6355 53.7805 31.2367 53.5248 31.2367 53.5248C29.3104 52.3881 27.2459 50.6492 25.6533 48.8691C24.8546 47.9765 24.1435 47.0391 23.6235 46.1263C23.1223 45.2466 22.7097 44.2368 22.7097 43.2386Z" fill="#E31E24"/>
<path fill-rule="evenodd" clip-rule="evenodd" d="M44.5753 0.696289C49.1626 0.69638 52.9356 4.34686 52.9356 8.91504C52.9355 11.27 51.9249 13.3845 50.3243 14.877C50.5367 15.8478 50.6485 16.8497 50.6485 17.873C50.6484 21.8603 48.9943 25.4386 46.2891 28.2002C54.5016 31.4575 57.7418 37.2622 58.4581 39.21C58.9005 40.4131 58.8691 41.6153 58.6573 42.5996C58.4489 43.5678 58.0428 44.4324 57.6007 45.0127L57.6016 45.0137C57.3294 45.3715 56.995 45.702 56.6153 45.9854C59.3409 48.9491 59.283 53.9967 56.9405 57.9541C54.214 62.5598 48.7266 65.1271 44.4766 62.5723C43.5148 61.9939 42.7537 61.2335 42.1807 60.3516C39.2887 62.3167 35.7786 63.4658 32.0011 63.4658L31.5841 63.4609C27.963 63.3798 24.6019 62.2433 21.8155 60.3486C21.2425 61.2303 20.4823 61.9911 19.5206 62.5693C15.2708 65.1237 9.78411 62.5566 7.05769 57.9512C4.71526 53.9938 4.65672 48.9463 7.38191 45.9824C7.00614 45.7006 6.67531 45.3711 6.4034 45.0146C5.96078 44.4344 5.55536 43.5686 5.34676 42.5996C5.13497 41.6153 5.10259 40.4132 5.545 39.21C6.2611 37.2628 9.497 31.4616 17.712 28.2041C15.0047 25.4421 13.3498 21.862 13.3497 17.873C13.3497 16.8498 13.4615 15.8478 13.6739 14.877C12.0735 13.3845 11.0637 11.2698 11.0636 8.91504C11.0636 4.34691 14.8357 0.696471 19.4229 0.696289C21.6358 0.696333 23.6523 1.54539 25.1505 2.93164C27.2748 2.21027 29.5862 1.81644 31.9991 1.81641C34.4118 1.81642 36.7235 2.21037 38.8477 2.93164C40.3459 1.54523 42.3623 0.696366 44.5753 0.696289ZM53.5235 47.29C51.2675 45.9342 47.4299 47.0384 45.1602 50.8721C42.8907 54.706 43.7494 58.6336 46.005 59.9902C48.261 61.3464 52.0995 60.2425 54.3692 56.4082C56.6387 52.574 55.7795 48.6462 53.5235 47.29ZM18.838 50.8701C16.5682 47.0358 12.7298 45.9309 10.4737 47.2871C8.21792 48.6435 7.35935 52.5721 9.62898 56.4062C11.8987 60.2398 15.7363 61.3441 17.9923 59.9883C20.2482 58.6321 21.1074 54.7043 18.838 50.8701ZM43.6202 30.4297C40.4 32.6321 36.3368 33.9297 31.9991 33.9297C27.6622 33.9296 23.599 32.6333 20.379 30.4316C11.8916 33.1801 8.8637 38.8769 8.36043 40.2451C8.15986 40.7906 8.1558 41.3932 8.27937 41.9678C8.40625 42.5573 8.64373 43.0058 8.78816 43.1953C9.10029 43.6045 9.53839 43.8517 9.92293 43.9072L10.0841 43.9189L10.2374 43.9268C10.3458 43.9378 10.4505 43.9613 10.5509 43.9941C11.7125 43.6451 12.9236 43.6145 14.1163 43.8467C14.7619 39.7393 17.0689 36.1352 20.3653 33.5352C21.0156 33.0223 21.9587 33.1341 22.4718 33.7842C22.9847 34.4346 22.8731 35.3776 22.2227 35.8906C19.2728 38.2175 17.3682 41.4074 16.9991 44.9336C18.7453 45.9253 20.3041 47.4572 21.4093 49.3242C22.9173 51.8719 23.4763 54.8716 22.9581 57.4766C25.3774 59.2859 28.3815 60.3888 31.6524 60.4619L32.0001 60.4658C35.4035 60.4658 38.5341 59.3507 41.0382 57.4795C40.5203 54.8745 41.081 51.8747 42.5889 49.3271C43.695 47.4588 45.2553 45.9251 47.003 44.9336C46.6459 41.5235 44.8533 38.4276 42.0675 36.123L41.7794 35.8906L41.6632 35.79C41.117 35.2613 41.0495 34.3939 41.5303 33.7842C42.0113 33.1746 42.8704 33.0383 43.5118 33.4463L43.6368 33.5352L43.9796 33.8115C47.0936 36.3882 49.2622 39.8842 49.8848 43.8486C51.0749 43.6174 52.2832 43.6495 53.4425 43.9971C53.5922 43.9469 53.7524 43.919 53.919 43.9189C54.3366 43.9189 54.863 43.6585 55.2139 43.1973L55.2149 43.1953L55.338 43.0068C55.4717 42.7732 55.6285 42.41 55.7237 41.9678C55.8473 41.3932 55.8432 40.7906 55.6427 40.2451C55.148 38.9003 52.2086 33.366 44.046 30.5684L43.6202 30.4297ZM44.5753 3.69629C42.8854 3.69638 41.3861 4.45596 40.4053 5.63672L39.71 6.47363L38.6983 6.07227C36.6728 5.26879 34.4026 4.81643 31.9991 4.81641C29.5956 4.81645 27.3254 5.26878 25.2999 6.07227L24.2891 6.47363L23.5938 5.63672C22.613 4.45593 21.1129 3.69634 19.4229 3.69629C16.4334 3.69647 14.0636 6.06226 14.0636 8.91504C14.0637 10.6264 14.9093 12.1554 16.2384 13.1133L17.1007 13.7344L16.8009 14.7539C16.5065 15.753 16.3497 16.7974 16.3497 17.873C16.35 24.8628 23.1167 30.9295 31.9991 30.9297C40.8816 30.9296 47.6482 24.8629 47.6485 17.873C47.6485 16.7975 47.4926 15.753 47.1983 14.7539L46.8975 13.7344L47.7598 13.1133C49.0889 12.1554 49.9354 10.6264 49.9356 8.91504C49.9356 6.0622 47.5648 3.69638 44.5753 3.69629Z" fill="#1A73DA"/>
</svg>
