<svg width="64" height="64" viewBox="0 0 64 64" fill="none" xmlns="http://www.w3.org/2000/svg">
<path d="M12.3932 32H5.5C4.67157 32 4 32.6716 4 33.5C4 34.3284 4.67158 35 5.5 35H13.0072C12.8272 33.9948 12.6172 32.9962 12.3932 32Z" fill="#E31E24"/>
<path d="M50.9919 35H58.4992C59.3276 35 59.9992 34.3284 59.9992 33.5C59.9992 32.6716 59.3276 32 58.4992 32H51.606C51.3819 32.9962 51.172 33.9948 50.9919 35Z" fill="#E31E24"/>
<path d="M54.0607 3.06066C54.6464 2.47487 54.6464 1.52513 54.0607 0.93934C53.4749 0.353553 52.5251 0.353553 51.9393 0.93934L32 20.8787L12.0607 0.93934C11.4749 0.353553 10.5251 0.353553 9.93934 0.93934C9.35355 1.52513 9.35355 2.47487 9.93934 3.06066L29.8787 23L9.93934 42.9393C9.35355 43.5251 9.35355 44.4749 9.93934 45.0607C10.5251 45.6464 11.4749 45.6464 12.0607 45.0607L32 25.1213L51.9393 45.0607C52.5251 45.6464 53.4749 45.6464 54.0607 45.0607C54.6464 44.4749 54.6464 43.5251 54.0607 42.9393L34.1213 23L54.0607 3.06066Z" fill="#00A9B4"/>
<path d="M47.1879 2.86293C45.3432 1.36489 43.0817 0.5 40.5306 0.5C39.1122 0.5 37.6971 0.953874 36.452 1.29366C35.1373 1.65246 33.7385 1.98148 32 1.98148C30.2615 1.98148 28.8627 1.65246 27.548 1.29366C26.3029 0.953863 24.8878 0.5 23.4694 0.5C20.9185 0.5 18.6573 1.36471 16.8127 2.86246L18.9491 4.99886C20.2495 4.02405 21.7767 3.5 23.4694 3.5C24.3774 3.5 25.2891 3.7869 26.7581 4.18782C28.1577 4.56976 29.861 4.98148 32 4.98148C34.139 4.98148 35.8423 4.56976 37.2419 4.18782C38.7109 3.7869 39.6226 3.5 40.5306 3.5C42.2236 3.5 43.751 4.02421 45.0515 4.99931L47.1879 2.86293Z" fill="#1A73DA"/>
<path d="M15.1381 11.0874C14.7268 12.5791 14.5 14.2541 14.5 16.0741C14.5 20.889 15.6318 24.9012 16.631 28.423C17.0199 29.7939 17.3155 31.1543 17.5425 32.5083L14.8886 35.1623C14.6582 33.1784 14.306 31.2194 13.7449 29.2419L13.732 29.1964C12.7373 25.6906 11.5 21.3295 11.5 16.0741C11.5 13.3928 11.9349 10.8925 12.76 8.70929L15.1381 11.0874Z" fill="#1A73DA"/>
<path d="M15.3988 44.5515L18.3163 41.634C18.4429 45.5457 18.4692 49.4656 18.7611 53.3696C18.935 55.6948 19.7126 57.5336 20.6747 58.7588C21.6612 60.0152 22.7226 60.5 23.4694 60.5C23.809 60.5 24.4295 60.1736 25.0334 58.6648C25.5799 57.2998 25.8469 55.5503 25.8469 54.2222C25.8469 52.5918 26.0659 50.0709 26.2669 48.0859C26.549 45.3007 28.7829 42.7222 32 42.7222C35.2171 42.7222 37.451 45.3007 37.7331 48.0859C37.9341 50.0709 38.1531 52.5918 38.1531 54.2222C38.1531 55.5503 38.4201 57.2998 38.9666 58.6648C39.5705 60.1736 40.191 60.5 40.5306 60.5C41.2774 60.5 42.3388 60.0152 43.3253 58.7588C44.2874 57.5336 45.065 55.6948 45.2389 53.3696C45.5308 49.4653 45.5571 45.545 45.6837 41.633L48.6012 44.5505C48.511 47.8179 48.4137 51.144 48.2305 53.5933C48.0166 56.4534 47.0494 58.8738 45.6849 60.6115C44.3449 62.3181 42.4981 63.5 40.5306 63.5C38.1559 63.5 36.8376 61.419 36.1814 59.7797C35.4676 57.9965 35.1531 55.8571 35.1531 54.2222C35.1531 52.7645 34.9508 50.3867 34.7484 48.3882C34.5959 46.8824 33.436 45.7222 32 45.7222C30.564 45.7222 29.4041 46.8824 29.2516 48.3882C29.0492 50.3867 28.8469 52.7645 28.8469 54.2222C28.8469 55.8571 28.5324 57.9965 27.8186 59.7797C27.1624 61.419 25.8441 63.5 23.4694 63.5C21.5019 63.5 19.6551 62.3181 18.3151 60.6115C16.9506 58.8738 15.9834 56.4534 15.7695 53.5933C15.5863 51.1442 15.4891 47.8186 15.3988 44.5515Z" fill="#1A73DA"/>
<path d="M49.1115 35.1613C49.3419 33.1778 49.6941 31.2191 50.2551 29.2419L50.268 29.1964C51.2627 25.6906 52.5 21.3295 52.5 16.0741C52.5 13.3931 52.0652 10.8931 51.2403 8.71006L48.8621 11.0882C49.2732 12.5797 49.5 14.2545 49.5 16.0741C49.5 20.889 48.3682 24.9012 47.369 28.423C46.9802 29.7936 46.6846 31.1536 46.4577 32.5074L49.1115 35.1613Z" fill="#1A73DA"/>
</svg>
