<svg width="64" height="64" viewBox="0 0 64 64" fill="none" xmlns="http://www.w3.org/2000/svg">
<path d="M2 2V24H5V5L24 5V2H2Z" fill="#1A73DA"/>
<path d="M62 2H40V5L59 5V24H62V2Z" fill="#1A73DA"/>
<path d="M2 62V40H5V59H24V62H2Z" fill="#1A73DA"/>
<path d="M62 62H40V59H59V40H62V62Z" fill="#1A73DA"/>
<path fill-rule="evenodd" clip-rule="evenodd" d="M35.0527 13.5C41.3749 13.5001 46.4999 18.6251 46.5 24.9473C46.5 31.2694 41.3749 36.3945 35.0527 36.3945H25.9189V40.5H39C39.8284 40.5 40.5 41.1716 40.5 42C40.5 42.8284 39.8284 43.5 39 43.5H25.9189V49C25.9189 49.8284 25.2474 50.5 24.4189 50.5C23.5907 50.4998 22.9189 49.8283 22.9189 49V43.5H18C17.1716 43.5 16.5 42.8284 16.5 42C16.5 41.1716 17.1716 40.5 18 40.5H22.9189V36.3945H18C17.1716 36.3945 16.5 35.723 16.5 34.8945C16.5001 34.0662 17.1716 33.3945 18 33.3945H22.9189V13.5H35.0527ZM25.9189 33.3945H35.0527C39.718 33.3945 43.5 29.6126 43.5 24.9473C43.4999 20.282 39.718 16.5001 35.0527 16.5H25.9189V33.3945Z" fill="#12CAE3"/>
</svg>
