<svg width="64" height="64" viewBox="0 0 64 64" fill="none" xmlns="http://www.w3.org/2000/svg">
<path d="M55 50V5H23.0244L9 19.0244V59H46V62H6V17.7822L21.7822 2H58V50C58 56.6274 52.6274 62 46 62V59C50.9706 59 55 54.9706 55 50Z" fill="#1A73DA"/>
<path d="M28.4399 41.939C29.0257 41.3536 29.9754 41.3534 30.561 41.939C31.1467 42.5246 31.1464 43.4742 30.561 44.0601L23.0005 51.6206L17.9399 46.5601L17.8364 46.4458C17.3564 45.8566 17.391 44.988 17.9399 44.439C18.489 43.8903 19.3578 43.8555 19.9468 44.3354L20.061 44.439L23.0005 47.3784L28.4399 41.939ZM28.4399 28.939C29.0257 28.3536 29.9754 28.3534 30.561 28.939C31.1467 29.5246 31.1464 30.4742 30.561 31.0601L23.0005 38.6206L17.9399 33.5601L17.8364 33.4458C17.3564 32.8566 17.391 31.988 17.9399 31.439C18.489 30.8903 19.3578 30.8555 19.9468 31.3354L20.061 31.439L23.0005 34.3784L28.4399 28.939ZM28.4399 15.939C29.0257 15.3536 29.9754 15.3534 30.561 15.939C31.1467 16.5246 31.1464 17.4742 30.561 18.0601L23.0005 25.6206L17.9399 20.5601L17.8364 20.4458C17.3564 19.8567 17.391 18.988 17.9399 18.439C18.489 17.8903 19.3578 17.8555 19.9468 18.3354L20.061 18.439L23.0005 21.3784L28.4399 15.939Z" fill="#12CAE3"/>
<path d="M48 50H34V47H48V50Z" fill="#1A73DA"/>
<path d="M48 37H34V34H48V37Z" fill="#1A73DA"/>
<path d="M48 24H34V21H48V24Z" fill="#1A73DA"/>
</svg>
