<svg width="140" height="138" viewBox="0 0 140 138" fill="none" xmlns="http://www.w3.org/2000/svg">
<g clip-path="url(#clip0_440_13555)">
<path d="M2.9794 85.185L7.80548 84.1574C9.62417 83.7744 11.1273 83.4855 12.6783 83.2691L12.6865 83.2289C11.3766 82.897 9.97822 82.4466 8.44948 81.8983L1.77098 79.4389L1.45923 77.9575L12.906 75.5353L13.2052 76.9346L8.3326 77.9652C6.47859 78.3577 5.12146 78.6265 3.64757 78.8127L3.64413 78.8706C5.0199 79.1658 6.50792 79.6681 7.9518 80.1822L14.4028 82.5699L14.7407 84.1486L3.27627 86.5755L2.9794 85.185Z" fill="#1A73DA"/>
<path d="M0.874796 71.1435L5.77151 71.1213L5.74647 65.4469L0.84976 65.4691L0.845361 63.9338L12.5506 63.8893L12.555 65.4246L7.06165 65.4454L7.08669 71.1198L12.58 71.099L12.5885 72.6142L0.883281 72.6587L0.874796 71.1435Z" fill="#1A73DA"/>
<path d="M3.06375 56.8807L2.44369 60.3948L1.17994 60.1643L2.70429 51.6184L3.96804 51.8488L3.34152 55.3741L13.6023 57.2152L13.3333 58.7193L3.06375 56.8807Z" fill="#1A73DA"/>
<path d="M11.5611 44.5214L10.0742 48.8273L14.0616 50.2153L15.7196 45.4178L16.9201 45.8359L14.7657 52.0658L3.70927 48.2091L5.77928 42.2295L6.97975 42.6476L5.40613 47.1949L8.90262 48.4109L10.3895 44.105L11.5611 44.5214Z" fill="#1A73DA"/>
<path d="M7.72386 38.1427C7.96238 37.4433 8.32837 36.5486 8.90433 35.4838C9.6112 34.1657 10.4403 33.3745 11.3197 33.0535C12.1108 32.7562 13.0456 32.8187 13.9658 33.3214C14.8973 33.8305 15.4833 34.4986 15.7391 35.3121C16.1109 36.417 15.8706 37.7808 15.1678 39.0787C14.9529 39.4777 14.7374 39.839 14.4957 40.1029L18.6177 42.3464L17.8955 43.678L7.72386 38.1427ZM13.4075 39.503C13.6426 39.2503 13.8717 38.9044 14.1124 38.4605C14.9784 36.8532 14.7257 35.4509 13.3085 34.683C11.9473 33.9476 10.7757 34.5555 9.97601 36.0217C9.65777 36.6002 9.47069 37.0676 9.40871 37.3308L13.4075 39.503Z" fill="#1A73DA"/>
<path d="M22.0775 27.1452L19.2966 30.7546L22.6394 33.3397L25.737 29.3229L26.7396 30.0976L22.7158 35.3204L13.4495 28.1483L17.3129 23.1392L18.3155 23.9138L15.3807 27.7257L18.3076 29.9953L21.0885 26.3859L22.0775 27.1452Z" fill="#1A73DA"/>
<path d="M34.0833 22.5343C33.8604 23.1156 33.236 24.0701 32.1905 25.0426C29.7606 27.2776 26.5251 27.4238 23.921 24.5933C21.4368 21.8921 21.5822 18.3724 24.2543 15.9113C25.3239 14.9229 26.2132 14.5328 26.6547 14.4145L27.2204 15.5718C26.607 15.7551 25.8708 16.1515 25.1505 16.8188C23.1311 18.6782 22.9776 21.2137 25.0618 23.4815C27.0014 25.5984 29.4584 25.8316 31.5542 23.9043C32.2287 23.2778 32.7875 22.5021 33.0361 21.8759L34.0833 22.5343Z" fill="#1A73DA"/>
<path d="M31.2862 10.6794L33.8472 14.8681L38.6752 11.9052L36.1142 7.71652L37.4133 6.91319L43.5393 16.9184L42.2403 17.7217L39.3645 13.0294L34.5364 15.9923L37.4122 20.6847L36.1284 21.4744L30.0024 11.4692L31.2862 10.6794Z" fill="#1A73DA"/>
<path d="M53.5813 6.64025C54.9312 10.4421 53.3459 13.2854 50.5288 14.2868C47.6169 15.3232 44.7624 13.7833 43.5823 10.4386C42.3394 6.93053 43.6947 3.86436 46.6395 2.80973C49.6485 1.74739 52.4201 3.36634 53.5813 6.64025ZM45.0849 9.86527C45.9265 12.229 47.9513 13.8868 50.1886 13.0881C52.4436 12.2847 52.9853 9.74957 52.0946 7.2378C51.3157 5.03749 49.3535 3.15424 46.9773 3.99961C44.6275 4.83788 44.2268 7.43962 45.0849 9.86527Z" fill="#1A73DA"/>
<path d="M62.9957 5.53109L58.5036 6.25103L59.1769 10.4239L64.1865 9.62218L64.3901 10.8765L57.8831 11.9182L56.028 0.33229L62.2718 -0.667352L62.4754 0.586932L57.7201 1.34894L58.3048 5.01446L62.7969 4.29451L62.9957 5.53109Z" fill="#1A73DA"/>
<path d="M73.5835 -0.938853L73.1031 3.97943C72.9178 5.8311 72.7378 7.34938 72.4807 8.89781L72.5143 8.91726C73.2174 7.76149 74.0729 6.57435 75.0572 5.26734L79.4154 -0.36753L80.9216 -0.221043L79.7796 11.4471L78.3599 11.3059L78.8461 6.33863C79.0308 4.44921 79.1821 3.07136 79.4517 1.60494L79.3981 1.58138C78.7028 2.80146 77.7756 4.0742 76.8542 5.29798L72.6323 10.7351L71.0282 10.5769L72.1791 -1.09367L73.5835 -0.938853Z" fill="#1A73DA"/>
<path d="M99.0109 5.43148L94.7106 16.3336L93.3038 15.7811L97.1343 6.05761L92.0739 4.05611L88.2434 13.7796L86.8342 13.2182L91.1344 2.31613L99.0109 5.43148Z" fill="#1A73DA"/>
<path d="M108.973 18.1737C106.762 21.5449 103.538 21.982 101.044 20.3363C98.4567 18.6299 97.9601 15.434 99.9092 12.4648C101.954 9.35624 105.214 8.59641 107.823 10.3158C110.5 12.074 110.881 15.2629 108.973 18.1737ZM101.275 13.3223C99.9048 15.4155 99.8015 18.0324 101.792 19.3486C103.793 20.6713 106.138 19.5687 107.597 17.3474C108.874 15.4024 109.191 12.6998 107.086 11.3099C105.004 9.93299 102.688 11.1795 101.275 13.3223Z" fill="#1A73DA"/>
<path d="M121.032 21.7807L112.797 30.1141L111.714 29.0386L119.055 21.6086L116.298 18.8762L113.804 21.4033C112.026 23.2076 109.952 25.1479 107.999 24.7799C107.496 24.6681 106.817 24.3948 106.338 23.916L107.055 22.9178C107.448 23.1824 107.989 23.3313 108.371 23.3429C109.688 23.3502 111.345 21.7967 112.67 20.4553L116.14 16.9457L121.032 21.7807Z" fill="#1A73DA"/>
<path d="M122.67 34.2123L120.026 30.4916L116.584 32.9408L119.531 37.0832L118.499 37.8244L114.673 32.4476L124.21 25.6528L127.883 30.8143L126.849 31.5466L124.055 27.6195L121.043 29.7639L123.687 33.4847L122.67 34.2123Z" fill="#1A73DA"/>
<path d="M129.429 34.7527C130.252 35.2437 131.032 36.0019 131.593 37.1415C132.49 38.9688 132.169 40.705 130.546 41.5002C129.251 42.1413 127.813 41.6827 126.924 40.5929L126.891 40.6112C127.471 42.1726 127.034 43.7218 125.521 44.4686C123.339 45.5463 121.538 44.0848 120.588 42.1673C120.115 41.2129 119.83 40.1133 119.923 39.083L121.158 38.9229C121.106 39.648 121.256 40.7366 121.683 41.5895C122.451 43.1478 123.716 43.596 124.868 43.0217C126.441 42.2494 126.144 40.5078 125.482 39.1677L125.172 38.5395L126.201 38.0361L126.512 38.6643C127.197 40.0552 128.583 40.708 129.661 40.1727C130.723 39.651 130.944 38.6053 130.383 37.4657C129.99 36.67 129.254 36.0043 128.621 35.6236L129.429 34.7527Z" fill="#1A73DA"/>
<path d="M135.246 46.3585L130.534 47.7064L132.09 53.1602L136.802 51.8123L137.224 53.283L125.973 56.5063L125.551 55.0357L130.825 53.5275L129.27 48.0736L123.995 49.5818L123.577 48.1288L134.828 44.9055L135.246 46.3585Z" fill="#1A73DA"/>
<path d="M133.208 68.9175C129.188 69.2076 126.879 66.9145 126.656 63.9296C126.434 60.8403 128.665 58.4976 132.194 58.2444C135.897 57.9728 138.496 60.1123 138.728 63.237C138.964 66.4171 136.67 68.6632 133.208 68.9175ZM132.35 59.8527C129.854 60.0379 127.722 61.5481 127.896 63.9294C128.075 66.3283 130.371 67.5151 133.019 67.3275C135.34 67.1607 137.674 65.7672 137.493 63.2549C137.312 60.7427 134.92 59.6574 132.35 59.8527Z" fill="#1A73DA"/>
<path d="M131.74 78.3115L132.258 73.7814L128.069 73.301L127.491 78.3498L126.231 78.2037L126.974 71.6502L138.605 72.9912L137.887 79.282L136.627 79.136L137.172 74.3522L133.498 73.9233L132.98 78.4534L131.74 78.3115Z" fill="#1A73DA"/>
<path d="M126.649 96.2254C122.902 94.7446 121.804 91.6719 122.905 88.892C124.035 86.0095 127.06 84.8669 130.363 86.1728C133.824 87.5405 135.237 90.5859 134.096 93.4997C132.917 96.4808 129.878 97.5036 126.649 96.2254ZM129.804 87.6884C127.475 86.7666 124.894 87.202 124.023 89.427C123.146 91.6633 124.705 93.7397 127.171 94.7104C129.341 95.5704 132.05 95.3284 132.972 92.9759C133.883 90.6547 132.195 88.6314 129.804 87.6884Z" fill="#1A73DA"/>
<path d="M126.059 108.078L122.179 105.077L118.724 109.56L122.604 112.56L121.669 113.769L112.403 106.597L113.338 105.388L117.683 108.748L121.136 104.257L116.791 100.897L117.71 99.7021L126.977 106.874L126.059 108.078Z" fill="#1A73DA"/>
<path d="M111.343 112.751L109.844 109.169L111.026 108.141L115.718 119.612L114.346 120.814L103.648 114.585L104.87 113.528L108.235 115.49L111.343 112.751ZM109.222 116.174L112.296 117.968C112.993 118.379 113.586 118.789 114.156 119.186L114.178 119.162C113.854 118.518 113.525 117.857 113.227 117.169L111.866 113.853L109.222 116.174Z" fill="#1A73DA"/>
<path d="M106.278 126.865L101.363 117.636L98.0095 119.426L102.924 128.655L101.608 129.359L96.6932 120.129L93.3549 121.906L98.261 131.138L96.927 131.846L91.4183 121.495L102.083 115.802L107.594 126.162L106.278 126.865Z" fill="#1A73DA"/>
<path d="M84.2978 129.264L88.6717 127.997L87.4968 123.93L82.6219 125.341L82.2658 124.118L88.5906 122.29L91.8552 133.555L85.7776 135.317L85.4216 134.094L90.0404 132.752L89.0094 129.187L84.6355 130.454L84.2978 129.264Z" fill="#1A73DA"/>
<path d="M78.1491 139.096C78.0268 138.569 77.7915 138.044 76.9813 138.129C76.1886 138.208 76.0446 138.731 76.0391 139.311L74.8791 139.432C74.8459 138.284 75.4689 137.5 76.9322 137.345C78.3602 137.2 79.1011 137.845 79.3092 138.975L78.1491 139.096ZM79.7978 136.454L79.2846 131.537C79.0906 129.682 78.9667 128.16 78.9127 126.581L78.8815 126.57C78.4178 127.842 77.8223 129.187 77.118 130.657L73.9774 137.056L72.4764 137.211L71.2696 125.537L72.6888 125.394L73.2073 130.367C73.402 132.259 73.5257 133.639 73.5648 135.127L73.616 135.142C74.0519 133.802 74.7079 132.365 75.3717 130.992L78.4209 124.816L80.0326 124.65L81.217 136.311L79.7978 136.454Z" fill="#1A73DA"/>
<path d="M61.6421 137.184C60.8658 137.183 59.8556 137.122 58.5942 136.901C57.0459 136.633 55.9695 136.077 55.3551 135.303C54.782 134.612 54.5371 133.663 54.7202 132.58C54.9074 131.477 55.3813 130.667 56.1019 130.142C57.0848 129.395 58.5138 129.183 60.0397 129.438C60.5069 129.521 60.9388 129.614 61.2807 129.76L62.1034 124.883L63.6717 125.155L61.6421 137.184ZM61.0679 131.05C60.7437 130.9 60.3159 130.787 59.791 130.7C57.8957 130.373 56.5865 131.103 56.3072 132.781C56.0379 134.389 57.0349 135.355 58.7723 135.658C59.4575 135.778 59.9859 135.807 60.2738 135.787L61.0679 131.05Z" fill="#1A73DA"/>
<path d="M52.033 126.643L54.5029 123.391L56.0582 123.933L48.0834 134.226L46.2695 133.602L46.3119 120.55L47.9184 121.106L47.9007 125.208L52.033 126.643ZM47.801 126.496L47.7839 130.247C47.7853 131.1 47.7118 131.85 47.6536 132.587L47.6848 132.597C48.0931 131.966 48.5343 131.317 49.0003 130.689L51.3063 127.71L47.801 126.496Z" fill="#1A73DA"/>
<path d="M32.2299 126.741L32.8953 125.586L37.508 128.248L39.1616 125.377C38.8021 125.237 38.1531 124.898 37.797 124.7C36.78 124.119 35.9122 123.317 35.446 122.39C34.9342 121.398 34.8698 120.239 35.5844 118.986C36.1593 117.987 36.9346 117.419 37.8065 117.176C39.1688 116.821 40.8076 117.32 42.2638 118.163C43.2271 118.721 43.9253 119.207 44.3434 119.531L38.2116 130.203L32.2299 126.741ZM42.3826 119.772C42.0988 119.526 41.7445 119.298 41.274 119.026C40.4227 118.533 39.3939 118.297 38.5445 118.553C37.964 118.718 37.4364 119.115 37.0576 119.786C36.5885 120.613 36.6104 121.366 36.9213 122.032C37.2594 122.729 37.877 123.303 38.6388 123.744C38.9524 123.925 39.3998 124.147 39.7664 124.314L42.3826 119.772Z" fill="#1A73DA"/>
<path d="M23.6145 112.064C26.4138 108.877 29.834 108.89 32.1988 110.969C34.6402 113.122 34.695 116.54 32.2373 119.342C29.6555 122.282 26.1346 122.599 23.6595 120.427C21.139 118.19 21.2003 114.817 23.6145 112.064ZM30.9384 118.239C32.6784 116.256 33.1614 113.537 31.2786 111.879C29.3821 110.206 26.7767 111.008 24.928 113.116C23.3121 114.962 22.5794 117.738 24.5726 119.49C26.5545 121.235 29.1485 120.284 30.9384 118.239Z" fill="#1A73DA"/>
<path d="M16.2459 110.32L18.531 113.303L17.4563 114.131L11.8905 106.887L12.9651 106.059L15.2613 109.048L23.9526 102.347L24.9283 103.622L16.2459 110.32Z" fill="#1A73DA"/>
<path d="M12.6807 94.8296L14.9343 99.0722L18.8528 96.9885L16.3468 92.2634L17.5225 91.6354L20.7848 97.7701L9.89744 103.552L6.76813 97.6658L7.94383 97.0378L10.328 101.52L13.7651 99.689L11.5115 95.4464L12.6807 94.8296Z" fill="#1A73DA"/>
<path d="M49.868 60V47.22H59.084V49.362H52.334V52.44H55.808C57.236 52.44 58.31 52.776 59.03 53.448C59.75 54.12 60.11 55.02 60.11 56.148C60.11 56.904 59.954 57.57 59.642 58.146C59.33 58.722 58.868 59.178 58.256 59.514C57.644 59.838 56.87 60 55.934 60H49.868ZM52.334 57.858H55.592C56.072 57.858 56.456 57.774 56.744 57.606C57.032 57.426 57.242 57.204 57.374 56.94C57.506 56.664 57.572 56.376 57.572 56.076C57.572 55.776 57.512 55.5 57.392 55.248C57.284 54.984 57.086 54.774 56.798 54.618C56.51 54.45 56.096 54.366 55.556 54.366H52.334V57.858Z" fill="#1A73DA"/>
<path d="M54.286 90.09C53.35 90.09 52.498 89.91 51.73 89.55C50.974 89.19 50.32 88.704 49.768 88.092C49.228 87.468 48.808 86.772 48.508 86.004C48.208 85.224 48.058 84.426 48.058 83.61C48.058 82.758 48.214 81.948 48.526 81.18C48.85 80.4 49.288 79.71 49.84 79.11C50.404 78.498 51.064 78.018 51.82 77.67C52.588 77.31 53.428 77.13 54.34 77.13C55.264 77.13 56.104 77.316 56.86 77.688C57.628 78.06 58.282 78.558 58.822 79.182C59.362 79.806 59.782 80.502 60.082 81.27C60.382 82.038 60.532 82.83 60.532 83.646C60.532 84.486 60.376 85.296 60.064 86.076C59.752 86.844 59.314 87.534 58.75 88.146C58.198 88.746 57.538 89.22 56.77 89.568C56.014 89.916 55.186 90.09 54.286 90.09ZM50.578 83.61C50.578 84.162 50.662 84.696 50.83 85.212C50.998 85.728 51.238 86.19 51.55 86.598C51.874 86.994 52.264 87.312 52.72 87.552C53.188 87.78 53.716 87.894 54.304 87.894C54.904 87.894 55.438 87.774 55.906 87.534C56.374 87.282 56.764 86.952 57.076 86.544C57.388 86.124 57.622 85.662 57.778 85.158C57.946 84.642 58.03 84.126 58.03 83.61C58.03 83.058 57.94 82.53 57.76 82.026C57.592 81.51 57.346 81.054 57.022 80.658C56.71 80.25 56.32 79.932 55.852 79.704C55.396 79.464 54.88 79.344 54.304 79.344C53.692 79.344 53.152 79.47 52.684 79.722C52.228 79.962 51.844 80.286 51.532 80.694C51.22 81.102 50.98 81.558 50.812 82.062C50.656 82.566 50.578 83.082 50.578 83.61Z" fill="#1A73DA"/>
<path d="M88.968 60V49.398H85.224L85.152 51.558C85.092 53.25 84.954 54.648 84.738 55.752C84.522 56.856 84.21 57.726 83.802 58.362C83.394 58.986 82.878 59.43 82.254 59.694C81.642 59.946 80.904 60.072 80.04 60.072V57.93C80.484 57.93 80.868 57.834 81.192 57.642C81.516 57.45 81.786 57.102 82.002 56.598C82.23 56.094 82.41 55.38 82.542 54.456C82.674 53.532 82.764 52.338 82.812 50.874L82.938 47.22H91.434V60H88.968Z" fill="#1A73DA"/>
<path d="M82.868 90V77.22H90.716V79.398H85.334V90H82.868Z" fill="#1A73DA"/>
<rect x="69.5" y="37" width="1" height="64" fill="#1A73DA"/>
<rect x="102" y="68.5" width="1" height="64" transform="rotate(90 102 68.5)" fill="#1A73DA"/>
<circle cx="70" cy="69" r="48.5" stroke="#1A73DA"/>
</g>
<defs>
<clipPath id="clip0_440_13555">
<rect width="140" height="138" fill="white"/>
</clipPath>
</defs>
</svg>
