<svg width="110" height="520" viewBox="0 0 110 520" fill="none" xmlns="http://www.w3.org/2000/svg">
<rect x="-20" width="130" height="520" fill="#9493A9"/>
<path d="M45 390C45 425.899 74.1015 455 110 455V520C38.203 520 -20 461.797 -20 390H45Z" fill="#9E9DB2"/>
<path fill-rule="evenodd" clip-rule="evenodd" d="M62.4824 282C73.455 282 82.509 290.212 83.833 300.823H84V364.572C83.9999 372.156 75.4872 376.626 69.2412 372.32L46.5273 356.658C45.608 356.024 44.392 356.024 43.4727 356.658L20.7588 372.32C14.5128 376.626 6.00014 372.156 6 364.572V300.823H6.16699C7.49095 290.212 16.545 282 27.5176 282C32.0313 282 36.2195 283.389 39.6787 285.763C42.7098 287.843 47.2902 287.843 50.3213 285.763C53.7805 283.389 57.9687 282 62.4824 282ZM71.8838 317.506C71.7905 309.533 61.0377 309.677 61.1191 317.506C61.1598 322.121 59.8569 325.716 56.3662 329.001C53.2078 332.072 49.3852 333.559 45.0029 333.559C40.5469 333.559 36.7546 332.039 33.6289 329.001C30.4522 326.012 28.8633 322.386 28.8633 318.123C28.8633 318.004 28.8675 317.885 28.8701 317.767L28.877 317.506C28.9584 309.677 18.2056 309.533 18.1123 317.506L18.1045 318.123C18.0218 325.226 20.7697 331.255 26.0215 336.277C31.2721 341.3 37.5749 343.849 45.0029 343.849C52.4322 343.849 58.7598 341.325 63.9854 336.277C69.4734 331.08 71.9815 324.965 71.8936 317.506H71.8838Z" fill="#9E9DB2"/>
<path d="M-20 65C15.8986 65 45 94.1015 45 130H110V260H45C45 224.102 74.1015 195 110 195C74.1015 195 45 165.898 45 130C45 165.898 15.8985 195 -20 195C15.8985 195 45 224.102 45 260H-20V65Z" fill="#9E9DB2"/>
<path d="M110 130C110 58.203 51.797 0 -20 0H110V130Z" fill="#9E9DB2"/>
</svg>
