<svg width="369" height="520" viewBox="0 0 369 520" fill="none" xmlns="http://www.w3.org/2000/svg">
<g clip-path="url(#clip0_11_383)">
<path d="M370 520H0C143.594 520 260 403.594 260 260C260 116.406 143.594 5.68248e-06 0 5.68248e-06H370V520Z" fill="#C5E7FF"/>
<path d="M370 5.68248e-06H0V520H370V5.68248e-06Z" fill="#B3E0FF"/>
<path d="M389 390C353.101 390 324 419.101 324 455L324.005 455.84C324.455 491.351 353.382 520 389 520V390Z" fill="#C5E7FF"/>
<path d="M130 520H195C195 484.101 165.899 455 130 455C165.899 455 195 425.899 195 390C195 425.899 224.101 455 260 455C224.101 455 195 484.101 195 520H260V390H130V520Z" fill="#C5E7FF"/>
<path d="M324 260C324 295.899 294.899 325 259 325C294.899 325 324 354.101 324 390C324 354.101 353.101 325 389 325C353.101 325 324 295.899 324 260Z" fill="#C5E7FF"/>
<path d="M194 260C194 295.899 223.101 325 259 325V260H194Z" fill="#C5E7FF"/>
<path d="M130 0C130 71.797 71.797 130 0 130C71.797 130 130 188.203 130 260C130 188.537 187.663 130.543 259 130.006V195C294.899 195 324 224.102 324 260H389C389 188.37 331.067 130.272 259.5 130.003C259.667 130.002 259.833 130 260 130C259.841 130 259.683 129.997 259.524 129.996C295.181 129.714 324 100.724 324 65C324 29.1015 294.899 -3.364e-08 259 0V129.993C187.663 129.456 130 71.4634 130 0Z" fill="#C5E7FF"/>
</g>
<defs>
<clipPath id="clip0_11_383">
<rect width="369" height="520" fill="white"/>
</clipPath>
</defs>
</svg>
