<svg width="370" height="520" viewBox="0 0 370 520" fill="none" xmlns="http://www.w3.org/2000/svg">
<path d="M370 520H0C143.594 520 260 403.594 260 260C260 116.406 143.594 0 0 0H370V520Z" fill="#B3E0FF"/>
<path d="M0 0H370V520H0V0Z" fill="#C5E7FF"/>
<path d="M195 415C195 437.091 212.909 455 235 455C212.909 455 195 472.909 195 495C195 472.909 177.091 455 155 455C177.091 455 195 437.091 195 415Z" fill="#B3E0FF"/>
<path d="M325 415C325 437.091 342.909 455 365 455C342.909 455 325 472.909 325 495C325 472.909 307.091 455 285 455C307.091 455 325 437.091 325 415Z" fill="#B3E0FF"/>
<path d="M195 285C195 307.091 212.909 325 235 325C212.909 325 195 342.909 195 365C195 342.909 177.091 325 155 325C177.091 325 195 307.091 195 285Z" fill="#B3E0FF"/>
<path d="M325 285C325 307.091 342.909 325 365 325C342.909 325 325 342.909 325 365C325 342.909 307.091 325 285 325C307.091 325 325 307.091 325 285Z" fill="#B3E0FF"/>
<path d="M195 155C195 177.091 212.909 195 235 195C212.909 195 195 212.909 195 235C195 212.909 177.091 195 155 195C177.091 195 195 177.091 195 155Z" fill="#B3E0FF"/>
<path d="M325 155C325 177.091 342.909 195 365 195C342.909 195 325 212.909 325 235C325 212.909 307.091 195 285 195C307.091 195 325 177.091 325 155Z" fill="#B3E0FF"/>
<path d="M195 25C195 47.0914 212.909 65 235 65C212.909 65 195 82.9086 195 105C195 82.9086 177.091 65 155 65C177.091 65 195 47.0914 195 25Z" fill="#B3E0FF"/>
<path d="M325 25C325 47.0914 342.909 65 365 65C342.909 65 325 82.9086 325 105C325 82.9086 307.091 65 285 65C307.091 65 325 47.0914 325 25Z" fill="#B3E0FF"/>
</svg>
