<svg width="110" height="440" viewBox="0 0 110 440" fill="none" xmlns="http://www.w3.org/2000/svg">
<rect width="110" height="440" fill="#3E98F4"/>
<path d="M55 330C55 360.376 79.6244 385 110 385V440C49.2487 440 -7.24452e-07 390.751 0 330H55Z" fill="#4BA3FF"/>
<path fill-rule="evenodd" clip-rule="evenodd" d="M69.7928 238.615C79.0773 238.615 86.7384 245.564 87.8587 254.543H88V308.484C87.9999 314.902 80.7969 318.683 75.5118 315.04L56.2924 301.788C55.5145 301.251 54.4855 301.251 53.7076 301.788L34.4882 315.04C29.2031 318.683 22.0001 314.902 22 308.484V254.543H22.1413C23.2616 245.564 30.9227 238.615 40.2072 238.615C44.0265 238.615 47.5704 239.791 50.4974 241.799C53.0621 243.559 56.9379 243.559 59.5026 241.799C62.4296 239.791 65.9735 238.615 69.7928 238.615ZM77.7478 268.659C77.6689 261.912 68.5704 262.035 68.6393 268.659C68.6737 272.564 67.5712 275.606 64.6176 278.385C61.9451 280.984 58.7105 282.242 55.0025 282.242C51.232 282.242 48.0231 280.956 45.3783 278.385C42.6903 275.856 41.3459 272.788 41.3459 269.181C41.3459 269.08 41.3494 268.979 41.3516 268.879L41.3574 268.659C41.4263 262.035 32.3278 261.912 32.2489 268.659L32.2423 269.181C32.1723 275.191 34.4974 280.293 38.9413 284.542C43.3841 288.792 48.7172 290.949 55.0025 290.949C61.2888 290.949 66.6429 288.813 71.0645 284.542C75.7083 280.145 77.8305 274.97 77.7561 268.659H77.7478Z" fill="#4BA3FF"/>
<path d="M0 55C30.3757 55 55 79.6244 55 110H110V220H55C55 189.624 79.6243 165 110 165C79.6243 165 55 140.376 55 110C55 140.376 30.3757 165 0 165C30.3757 165 55 189.624 55 220H0V55Z" fill="#4BA3FF"/>
<path d="M110 110C110 49.2487 60.7513 0 0 0H110V110Z" fill="#4BA3FF"/>
</svg>
