<svg width="223" height="48" viewBox="0 0 223 48" fill="none" xmlns="http://www.w3.org/2000/svg">
<g clip-path="url(#clip0_788_2906)">
<path d="M0 12.1224C0 15.4473 1.17972 18.2792 3.53903 20.6183C5.87539 22.9801 8.70425 24.161 12.0258 24.161C15.9198 24.161 19.0693 22.6246 21.4744 19.5518C21.8868 19.0244 22.0585 18.4397 21.9899 17.7977C21.8984 17.1326 21.5891 16.5939 21.0622 16.181C20.5353 15.7683 19.9514 15.6078 19.3099 15.6995C18.6456 15.7683 18.1074 16.0664 17.695 16.5937C16.2519 18.4281 14.3621 19.3453 12.0258 19.3453C10.033 19.3453 8.33782 18.6346 6.94057 17.2129C5.52037 15.8141 4.8102 14.1173 4.8102 12.1221C4.8102 10.1272 5.52037 8.43049 6.94057 7.03149C8.33769 5.60976 10.0329 4.8991 12.0258 4.8991C14.3621 4.8991 16.2519 5.81623 17.695 7.65061C18.1073 8.17806 18.6456 8.47606 19.3099 8.54488C19.9514 8.63656 20.5353 8.47593 21.0622 8.06327C21.5891 7.65061 21.8984 7.11173 21.9899 6.44677C22.0586 5.80467 21.8869 5.21996 21.4744 4.69251C19.0693 1.61975 15.9198 0.0834961 12.0258 0.0834961C8.70425 0.0834961 5.87539 1.26422 3.53903 3.62605C1.17972 5.9649 0 8.79692 0 12.1218L0 12.1224Z" fill="#171825"/>
<path d="M29.9959 19.3456V14.5303H39.9597C40.6241 14.5303 41.1854 14.771 41.6434 15.2526C42.1245 15.7111 42.3648 16.273 42.3648 16.9378C42.3648 17.6029 42.1245 18.1646 41.6434 18.6233C41.1854 19.1049 40.6241 19.3455 39.9597 19.3455H29.9959V19.3456ZM29.9959 4.89946H38.5855C39.2498 4.89946 39.8108 5.14007 40.2691 5.62168C40.7502 6.08018 40.9906 6.6419 40.9906 7.30699C40.9906 7.97195 40.7502 8.53368 40.2691 8.99231C39.8108 9.47405 39.2498 9.71466 38.5855 9.71466H29.9959V4.89932V4.89946ZM27.5905 0.0841157C26.9263 0.0841157 26.3651 0.31343 25.907 0.771928C25.426 1.25354 25.1855 1.8267 25.1855 2.49179V21.7533C25.1855 22.4184 25.426 22.9802 25.907 23.4387C26.3651 23.9203 26.9263 24.1611 27.5905 24.1611H39.9597C41.9526 24.1611 43.6477 23.4503 45.0451 22.0286C46.4653 20.6298 47.1753 18.9329 47.1753 16.9378C47.1753 14.6906 46.2934 12.8448 44.5296 11.4002C45.3771 10.1619 45.8009 8.79754 45.8009 7.30699C45.8009 5.31212 45.091 3.61524 43.6708 2.21637C42.2735 0.794649 40.5785 0.0839844 38.5855 0.0839844H27.5905V0.0841157Z" fill="#171825"/>
<path d="M61.2626 19.3457C59.2702 19.3457 57.5751 18.6347 56.1777 17.2129C54.7574 15.8141 54.0472 14.1173 54.0472 12.1225C54.0472 12.0255 54.0517 11.9291 54.0526 11.8337C54.0891 8.17045 49.2821 8.10268 49.2404 11.8337L49.2371 12.1225C49.2001 15.4465 50.4285 18.2679 52.7762 20.618C55.1238 22.9682 57.9414 24.1609 61.2626 24.1609C64.5843 24.1609 67.4133 22.98 69.7495 20.618C72.2031 18.1859 73.3247 15.3242 73.2854 11.8337H73.2805C73.2387 8.10268 68.4318 8.17045 68.4684 11.8337C68.4866 13.9933 67.9039 15.6756 66.3431 17.2129C64.9309 18.6502 63.2221 19.3457 61.2626 19.3457Z" fill="#E31E24"/>
<path d="M131.677 22.8195C131.975 23.4156 132.433 23.817 133.051 24.0233C133.693 24.2296 134.311 24.1839 134.907 23.8858C135.502 23.5877 135.903 23.1292 136.109 22.5099C136.316 21.8678 136.27 21.2487 135.972 20.6527L126.351 1.39105C125.916 0.519761 125.206 0.0839844 124.221 0.0839844C123.213 0.0839844 122.492 0.519629 122.056 1.39105L112.436 20.6527C112.138 21.2487 112.092 21.8678 112.298 22.5099C112.505 23.1292 112.905 23.5877 113.501 23.8858C114.096 24.1839 114.715 24.2296 115.356 24.0233C115.975 23.8168 116.433 23.4156 116.731 22.8195L124.221 7.8573L131.677 22.8195H131.677Z" fill="#171825"/>
<path d="M158.753 4.89946C160.745 4.89946 162.44 5.61012 163.838 7.03184C165.258 8.43071 165.968 10.1275 165.968 12.1225C165.968 14.1175 165.258 15.8143 163.838 17.2132C162.44 18.6349 160.746 19.3456 158.753 19.3456C156.76 19.3456 155.065 18.6349 153.667 17.2132C152.247 15.8145 151.537 14.1176 151.537 12.1225C151.537 10.1276 152.247 8.43085 153.667 7.03184C155.065 5.61012 156.76 4.89946 158.753 4.89946ZM141.573 24.1611C142.237 24.1611 142.81 23.9203 143.291 23.4387C143.749 22.9802 143.978 22.4184 143.978 21.7533V14.5303H146.967C147.54 17.3049 148.915 19.598 151.091 21.4094C153.313 23.244 155.867 24.1611 158.753 24.1611C162.074 24.1611 164.903 22.9802 167.239 20.6184C169.599 18.2793 170.778 15.4474 170.778 12.1225C170.778 8.79754 169.599 5.96552 167.239 3.62667C164.903 1.26484 162.074 0.0841157 158.753 0.0841157C155.867 0.0841157 153.313 1.00124 151.091 2.83563C148.915 4.64703 147.54 6.9403 146.967 9.7148H143.978V2.49165C143.978 1.82656 143.749 1.25341 143.291 0.771796C142.81 0.313299 142.237 0.0839844 141.573 0.0839844C140.909 0.0839844 140.336 0.313299 139.855 0.771796C139.397 1.25341 139.168 1.82656 139.168 2.49165V21.7531C139.168 22.4182 139.397 22.9801 139.855 23.4386C140.336 23.9202 140.909 24.1609 141.573 24.1609V24.1611Z" fill="#171825"/>
<path d="M180.399 19.3457L185.552 8.20147L190.706 19.3457H180.399ZM197.305 19.3457H196.032L187.751 1.45968C187.339 0.610977 186.606 0.18689 185.552 0.18689C184.499 0.18689 183.777 0.610977 183.388 1.45968L175.073 19.3457H173.282C169.912 19.3457 169.907 24.1609 173.291 24.1609H197.365C201.246 24.1776 201.219 19.3457 197.304 19.3457H197.305Z" fill="#171825"/>
<path d="M81.568 15.1689V2.4078C81.568 1.74271 81.3391 1.18046 80.8809 0.722222C80.4 0.240872 79.827 0 79.1627 0C78.4983 0 77.9257 0.240872 77.4449 0.722222C76.9868 1.18085 76.7578 1.74271 76.7578 2.4078V15.1722L81.5679 15.1689H81.568ZM93.2502 8.90859V21.6698C93.2502 22.3349 93.4791 22.9081 93.9372 23.3894C94.4186 23.8482 94.9911 24.0774 95.6555 24.0774C96.3195 24.0774 96.8925 23.8482 97.3733 23.3894C97.8314 22.9081 98.0604 22.3349 98.0604 21.6698V2.40793C98.0604 -0.797478 93.2584 -0.683215 93.2385 2.17875C93.2133 5.81744 93.2751 5.62976 93.2503 8.90859H93.2502Z" fill="#171825"/>
<path fill-rule="evenodd" clip-rule="evenodd" d="M93.5489 15.651C91.3064 18.532 86.3602 20.395 83.3259 18.3531C82.3796 17.7298 81.5496 16.7915 81.5536 15.4951L81.5654 11.7266L76.7578 11.7118L76.7799 15.8982C76.8005 19.8573 79.5126 22.9432 83.7963 23.8317C89.2048 24.9533 94.6802 22.1466 98.0602 17.6452L93.5489 15.6509V15.651Z" fill="#171825"/>
<path d="M206.507 15.1689V2.4078C206.507 1.74271 206.279 1.18046 205.82 0.722222C205.34 0.240872 204.767 0 204.102 0C203.438 0 202.865 0.240872 202.384 0.722222C201.926 1.18085 201.697 1.74271 201.697 2.4078V15.1722L206.507 15.1689H206.507ZM218.19 8.90859V21.6698C218.19 22.3349 218.419 22.9081 218.877 23.3894C219.358 23.8482 219.931 24.0774 220.595 24.0774C221.259 24.0774 221.832 23.8482 222.313 23.3894C222.771 22.9081 223 22.3349 223 21.6698V2.40793C223 -0.797478 218.198 -0.683215 218.178 2.17875C218.153 5.81744 218.215 5.62976 218.19 8.90859H218.19Z" fill="#171825"/>
<path fill-rule="evenodd" clip-rule="evenodd" d="M218.488 15.651C216.246 18.532 211.3 20.395 208.265 18.3531C207.319 17.7298 206.489 16.7915 206.493 15.4951L206.505 11.7266L201.697 11.7118L201.719 15.8982C201.74 19.8573 204.452 22.9432 208.736 23.8317C214.144 24.9533 219.62 22.1466 223 17.6452L218.488 15.6509V15.651Z" fill="#171825"/>
<path d="M46.8975 41.4906H49.8369C50.0288 41.4906 50.1885 41.3306 50.1885 41.1386C50.1885 40.9148 50.0288 40.7549 49.8369 40.7549H47.1689L48.3033 37.652H49.8369C50.0288 37.652 50.1885 37.4922 50.1885 37.3003C50.1885 37.0764 50.0288 36.9164 49.8369 36.9164H48.5748L49.6611 33.9897C49.6773 33.9576 49.6773 33.9256 49.6773 33.8777C49.6773 33.7499 49.5974 33.622 49.4535 33.5738C49.4056 33.5579 49.3737 33.5579 49.3257 33.5579C49.1819 33.5579 49.0541 33.6377 49.0062 33.7658L47.824 36.9165H44.4689L45.5553 34.0217C45.5713 33.9897 45.5713 33.9418 45.5713 33.9097C45.5713 33.7658 45.4914 33.6378 45.3475 33.5899C45.2996 33.5738 45.2517 33.5579 45.2039 33.5579C45.0761 33.5579 44.9482 33.6537 44.9003 33.7819L43.7181 36.9165H40.8263C40.6345 36.9165 40.4747 37.0765 40.4747 37.2684C40.4747 37.4923 40.6345 37.6522 40.8263 37.6522H43.4463L42.296 40.755H40.8262C40.6344 40.755 40.4746 40.915 40.4746 41.107C40.4746 41.3308 40.6344 41.4907 40.8262 41.4907H42.0243L40.9539 44.3855C40.938 44.4176 40.938 44.4657 40.938 44.4974C40.938 44.6415 41.0178 44.7693 41.1618 44.8174C41.2097 44.8334 41.2575 44.8494 41.3055 44.8494C41.4331 44.8494 41.561 44.7536 41.6091 44.6255L42.7753 41.4907H46.1304L45.0601 44.3855C45.0441 44.4176 45.0441 44.4657 45.0441 44.4974C45.0441 44.6415 45.1398 44.7693 45.2836 44.8334C45.3316 44.8494 45.3635 44.8494 45.4114 44.8494C45.5552 44.8494 45.683 44.7694 45.7309 44.6255L46.8973 41.4907L46.8975 41.4906ZM43.0471 40.755L44.1974 37.6522H47.5525L46.4022 40.755H43.0471ZM62.0909 38.0202C62.0909 37.7961 61.899 37.6042 61.6755 37.6042H56.2595C56.0359 37.6042 55.8443 37.7962 55.8443 38.0202V44.4655C55.8443 44.6893 56.02 44.8652 56.2437 44.8652C56.4991 44.8652 56.6749 44.6892 56.6749 44.4655V38.3879H61.2602V44.4655C61.2602 44.6893 61.4359 44.8652 61.6755 44.8652C61.915 44.8652 62.0909 44.6892 62.0909 44.4655V38.0202ZM64.1038 41.2027C64.1038 43.3619 65.6376 44.9453 67.8743 44.9453C70.111 44.9453 71.6447 43.3619 71.6447 41.2027C71.6447 39.0438 70.111 37.4604 67.8743 37.4604C65.6376 37.4604 64.1038 39.0438 64.1038 41.2027ZM64.9824 41.2027C64.9824 39.4595 66.2127 38.244 67.8743 38.244C69.5678 38.244 70.766 39.4754 70.766 41.2027C70.766 42.9461 69.5679 44.1615 67.8743 44.1615C66.1968 44.1615 64.9824 42.9301 64.9824 41.2027ZM73.0188 44.8012H79.4091V46.2567C79.4091 46.4487 79.5849 46.6246 79.7926 46.6246C80.0164 46.6246 80.1919 46.4487 80.1919 46.2567V44.4336C80.1919 44.2096 80.0001 44.0177 79.7767 44.0177H78.9938V38.0203C78.9938 37.7962 78.802 37.6044 78.5785 37.6044H74.824C74.5845 37.6044 74.3928 37.7803 74.3928 38.0203L74.2969 39.6356C74.1532 41.9067 73.578 43.442 73.1307 44.0177H72.6514C72.4276 44.0177 72.236 44.2097 72.236 44.4336V46.2567C72.236 46.4487 72.4117 46.6246 72.6353 46.6246C72.843 46.6246 73.0189 46.4487 73.0189 46.2567V44.8012H73.0188ZM78.163 44.0175H74.0093C74.3768 43.5537 74.9358 42.0345 75.0956 39.9554L75.1915 38.3879H78.163V44.0175ZM87.1577 40.6909H81.9813C82.1251 39.2836 83.0678 38.244 84.6654 38.244C86.167 38.244 87.1257 39.1716 87.1577 40.6909ZM88.0046 40.7071C88.0046 38.7399 86.5985 37.4604 84.7453 37.4604C82.3808 37.4604 81.1027 39.1075 81.1027 41.2027C81.1027 43.4738 82.6524 44.9453 84.9212 44.9453C85.7679 44.9453 86.7425 44.6414 87.4294 44.0974C87.4934 44.0336 87.5412 43.9376 87.5412 43.8417C87.5412 43.7618 87.5092 43.6817 87.4614 43.6176C87.3655 43.5057 87.2537 43.4578 87.1418 43.4578C87.0621 43.4578 86.9822 43.4898 86.9181 43.5376C86.4069 43.9055 85.7998 44.1614 84.9689 44.1614C83.2434 44.1614 82.0931 43.1058 82.0292 41.3787H87.653C87.8128 41.3787 87.9884 41.2187 87.9884 41.0586C88.0046 40.9469 88.0046 40.8347 88.0046 40.7069V40.7071ZM95.5132 38.0202C95.5132 37.7961 95.3214 37.6042 95.0979 37.6042H91.2795C91.0399 37.6042 90.8481 37.7802 90.8481 38.0202L90.7525 39.8433C90.5766 42.8021 89.8419 43.7455 89.2986 44.0015C88.979 44.1453 88.8672 44.2253 88.8672 44.4813C88.8672 44.737 89.0749 44.8652 89.2507 44.8652C89.2826 44.8652 89.2987 44.8652 89.3146 44.8652C90.337 44.7212 91.2796 43.7617 91.5513 40.0032L91.6471 38.4358H94.6828V44.4655C94.6828 44.6893 94.8584 44.8652 95.098 44.8652C95.3377 44.8652 95.5134 44.6892 95.5134 44.4655V38.0202H95.5132ZM104.492 44.4655V38.004C104.492 37.7321 104.316 37.5722 104.045 37.5722C103.821 37.5722 103.613 37.7161 103.438 37.9402L98.8683 43.6019V37.9721C98.8683 37.7482 98.6925 37.5723 98.469 37.5723C98.2134 37.5723 98.0377 37.7483 98.0377 37.9721V44.4016C98.0377 44.6573 98.1815 44.8653 98.501 44.8653C98.7724 44.8653 98.9162 44.7373 99.0921 44.5135L103.661 38.8518V44.4655C103.661 44.6893 103.837 44.8652 104.061 44.8652C104.316 44.8652 104.492 44.6892 104.492 44.4655ZM112.129 38.7399C112.208 38.7878 112.304 38.8197 112.384 38.8197C112.496 38.8197 112.608 38.7718 112.704 38.6758C112.768 38.5958 112.799 38.5158 112.799 38.436C112.799 38.3081 112.736 38.1962 112.656 38.1322C111.937 37.6363 111.058 37.4604 110.083 37.4604C108.039 37.4604 106.505 39.1075 106.505 41.2027C106.505 43.4738 108.086 44.9453 110.307 44.9453C111.25 44.9453 112.176 44.6254 112.879 43.9376C112.943 43.8736 112.991 43.7617 112.991 43.6657C112.991 43.5698 112.959 43.4737 112.879 43.4098C112.784 43.33 112.704 43.2979 112.608 43.2979C112.512 43.2979 112.4 43.3459 112.32 43.4259C111.793 43.8737 111.17 44.1615 110.371 44.1615C108.694 44.1615 107.384 43.0259 107.384 41.2027C107.384 39.4915 108.694 38.244 110.211 38.244C110.914 38.244 111.553 38.3559 112.129 38.7399ZM115.58 40.0192V37.9721C115.58 37.7482 115.404 37.5723 115.18 37.5723C114.925 37.5723 114.749 37.7483 114.749 37.9721V44.3854C114.749 44.6095 114.941 44.8012 115.164 44.8012H116.858C119.094 44.8012 119.813 43.6497 119.813 42.3862C119.813 41.1068 119.174 40.0191 116.969 40.0191H115.58V40.0192ZM115.58 44.0175V40.8029H116.826C118.343 40.8029 118.935 41.3947 118.935 42.4022C118.935 43.4259 118.376 44.0177 116.81 44.0177H115.58L115.58 44.0175ZM127.817 42.6901L125.485 37.8602C125.405 37.7002 125.277 37.5722 125.086 37.5722C124.782 37.5722 124.622 37.7802 124.622 38.004C124.622 38.0839 124.638 38.148 124.67 38.2281L127.913 44.8012L127.754 45.1853C127.147 46.6405 126.619 47.2323 125.884 47.2323C125.709 47.2323 125.533 47.1842 125.357 47.1205C125.309 47.1044 125.245 47.0885 125.197 47.0885C125.054 47.0885 124.926 47.1523 124.862 47.2803C124.83 47.3443 124.814 47.4083 124.814 47.4563C124.814 47.5841 124.894 47.7122 125.022 47.7761C125.293 47.9201 125.645 48.0002 125.996 48.0002C126.971 48.0002 127.642 47.3764 128.696 44.8014L131.364 38.1962C131.396 38.1322 131.412 38.0523 131.412 37.9883C131.412 37.7483 131.253 37.5723 130.981 37.5723C130.773 37.5723 130.613 37.7163 130.565 37.8762L128.728 42.6582C128.585 43.058 128.441 43.4419 128.329 43.8098L127.818 42.6902L127.817 42.6901ZM138.474 38.0202C138.474 37.7961 138.282 37.6042 138.058 37.6042H134.24C134 37.6042 133.809 37.7802 133.809 38.0202L133.713 39.8433C133.537 42.8021 132.802 43.7455 132.259 44.0015C131.939 44.1453 131.828 44.2253 131.828 44.4813C131.828 44.737 132.035 44.8652 132.211 44.8652C132.243 44.8652 132.259 44.8652 132.275 44.8652C133.297 44.7212 134.24 43.7617 134.512 40.0032L134.608 38.4358H137.643V44.4655C137.643 44.6893 137.819 44.8652 138.058 44.8652C138.298 44.8652 138.474 44.6892 138.474 44.4655V38.0202H138.474ZM141.829 40.0191V37.972C141.829 37.748 141.653 37.5722 141.429 37.5722C141.174 37.5722 140.998 37.7482 140.998 37.972V44.3853C140.998 44.6093 141.19 44.8011 141.413 44.8011H142.979C145.216 44.8011 145.918 43.6495 145.918 42.3861C145.918 41.1067 145.28 40.019 143.075 40.019H141.829V40.0191ZM141.829 44.0174V40.8028H142.931C144.465 40.8028 145.04 41.3946 145.04 42.4021C145.04 43.4257 144.497 44.0175 142.915 44.0175H141.829L141.829 44.0174ZM148.395 37.972C148.395 37.748 148.219 37.5722 147.996 37.5722C147.74 37.5722 147.564 37.7482 147.564 37.972V44.4655C147.564 44.6893 147.74 44.8652 147.979 44.8652C148.219 44.8652 148.395 44.6892 148.395 44.4655V37.972ZM157.773 41.2667C157.773 39.1075 156.479 37.652 154.354 37.652C153.028 37.652 151.75 38.4038 151.239 39.6034C151.319 38.0681 151.686 36.1969 153.284 35.509C154.881 34.8054 155.872 35.3492 156.91 34.2937C156.99 34.2138 157.022 34.1176 157.022 34.0219C157.022 33.8938 156.974 33.7659 156.862 33.7019C156.767 33.6378 156.671 33.6059 156.591 33.6059C156.463 33.6059 156.351 33.67 156.223 33.7659C155.424 34.4537 154.61 34.0378 153.028 34.7096C150.663 35.6853 150.392 38.5958 150.392 40.5152C150.392 43.2821 151.878 44.9454 154.13 44.9454C156.239 44.9454 157.773 43.2822 157.773 41.2668V41.2667ZM151.271 40.6589C151.494 39.5874 152.517 38.4358 154.163 38.4358C155.904 38.4358 156.894 39.6193 156.894 41.2987C156.894 42.8821 155.712 44.1615 154.099 44.1615C152.485 44.1615 151.271 42.8821 151.271 40.6589H151.271ZM164.595 44.6093C164.755 44.7533 164.882 44.8652 165.074 44.8652C165.282 44.8652 165.442 44.7054 165.442 44.5133C165.442 44.4014 165.394 44.2735 165.282 44.1774L162.087 41.0428L165.01 38.2119C165.106 38.1159 165.138 38.02 165.138 37.924C165.138 37.732 164.978 37.572 164.803 37.572C164.611 37.572 164.483 37.6839 164.355 37.8119L161.368 40.8027C161.288 40.8827 161.256 40.9787 161.256 41.0906C161.256 41.1866 161.288 41.2986 161.368 41.3786L164.595 44.6091L164.595 44.6093ZM160.601 37.972C160.601 37.748 160.425 37.5722 160.202 37.5722C159.946 37.5722 159.77 37.7482 159.77 37.972V44.4655C159.77 44.6893 159.946 44.8652 160.185 44.8652C160.425 44.8652 160.601 44.6892 160.601 44.4655V37.972ZM166.512 41.2026C166.512 43.3618 168.046 44.9452 170.282 44.9452C172.519 44.9452 174.053 43.3618 174.053 41.2026C174.053 39.0437 172.519 37.4603 170.282 37.4603C168.046 37.4603 166.512 39.0437 166.512 41.2026ZM167.391 41.2026C167.391 39.4594 168.621 38.2438 170.282 38.2438C171.976 38.2438 173.174 39.4752 173.174 41.2026C173.174 42.946 171.976 44.1614 170.282 44.1614C168.605 44.1614 167.391 42.9299 167.391 41.2026ZM182.52 44.4654V38.0039C182.52 37.732 182.344 37.572 182.073 37.572C181.849 37.572 181.642 37.716 181.466 37.9401L176.897 43.6017V37.972C176.897 37.748 176.721 37.5722 176.497 37.5722C176.242 37.5722 176.066 37.7482 176.066 37.972V44.4014C176.066 44.6572 176.21 44.8652 176.529 44.8652C176.801 44.8652 176.945 44.7371 177.12 44.5133L181.69 38.8517V44.4654C181.69 44.6892 181.865 44.8651 182.089 44.8651C182.344 44.8651 182.52 44.6891 182.52 44.4654ZM181.546 34.5814C181.546 34.3894 181.402 34.2295 181.194 34.2295C180.955 34.2295 180.859 34.3414 180.779 34.5814C180.651 34.9812 180.124 35.269 179.405 35.269C178.654 35.269 178.095 34.9813 177.967 34.5814C177.887 34.3415 177.775 34.2295 177.568 34.2295C177.36 34.2295 177.216 34.3894 177.216 34.5814C177.216 35.1411 177.903 35.9088 179.405 35.9088C180.763 35.9088 181.546 35.1413 181.546 34.5814Z" fill="#171825"/>
</g>
<defs>
<clipPath id="clip0_788_2906">
<rect width="223" height="48" fill="white"/>
</clipPath>
</defs>
</svg>
