<svg width="89" height="40" viewBox="0 0 89 40" fill="none" xmlns="http://www.w3.org/2000/svg">
<mask id="mask0_829_1196" style="mask-type:alpha" maskUnits="userSpaceOnUse" x="0" y="0" width="89" height="40">
<path d="M86.9676 0L20 0C8.95431 0 0 8.95431 0 20C0 31.0457 8.95431 40 20 40H86.9676C88.5222 40 89.4824 38.3041 88.6826 36.971L78.5 20L88.6826 3.02899C89.4824 1.69594 88.5222 0 86.9676 0Z" fill="#FFA800"/>
</mask>
<g mask="url(#mask0_829_1196)">
<path d="M86.9676 0L20 0C8.95431 0 0 8.95431 0 20C0 31.0457 8.95431 40 20 40H86.9676C88.5222 40 89.4824 38.3041 88.6826 36.971L78.5 20L88.6826 3.02899C89.4824 1.69594 88.5222 0 86.9676 0Z" fill="#FFA800"/>
<path d="M59 52.5L89 2.5L103 3.5V52.5H59Z" fill="#FF8A00"/>
</g>
</svg>
