<svg width="16" height="16" viewBox="0 0 16 16" fill="none" xmlns="http://www.w3.org/2000/svg">
<path d="M0 1C0 0.447715 0.447715 0 1 0H16V2H1C0.447715 2 0 1.55228 0 1Z" fill="#529EF8" fill-opacity="0.7"/>
<path d="M15 16C14.4477 16 14 15.5523 14 15L14 0L16 -8.74228e-08L16 15C16 15.5523 15.5523 16 15 16Z" fill="#529EF8" fill-opacity="0.7"/>
<path d="M0.294998 15.7054C-0.0955266 15.3149 -0.0955268 14.6817 0.294997 14.2912L14.5859 0.000302204L16.0001 1.41452L1.70921 15.7054C1.31869 16.0959 0.685522 16.0959 0.294998 15.7054Z" fill="#529EF8" fill-opacity="0.7"/>
</svg>
