<svg width="148" height="148" viewBox="0 0 148 148" fill="none" xmlns="http://www.w3.org/2000/svg">
<path d="M102.915 11.9802L89.289 15.6308L79.3139 5.65564C76.1897 2.53152 71.1245 2.53144 68.0003 5.65547L58.0244 15.6308L44.3986 11.9802C40.1311 10.8369 35.7447 13.3693 34.601 17.6367L30.9492 31.2626L17.3233 34.9145C13.0559 36.0582 10.5234 40.4446 11.6668 44.7121L15.3173 58.3378L5.34297 68.3128C2.21894 71.437 2.21902 76.5022 5.34315 79.6264L15.3183 89.6015L11.667 103.229C10.5236 107.496 13.0562 111.883 17.3238 113.027L30.9492 116.678L34.6009 130.304C35.7447 134.572 40.1315 137.104 44.3991 135.96L58.0253 132.309L68.0001 142.283C71.1244 145.408 76.1899 145.408 79.314 142.283L89.288 132.309L102.915 135.96C107.183 137.104 111.57 134.571 112.713 130.304L116.364 116.678L129.99 113.027C134.258 111.883 136.791 107.496 135.647 103.228L131.995 89.6015L141.971 79.6265C145.095 76.5024 145.095 71.4369 141.971 68.3126L131.996 58.3378L135.647 44.7124C136.791 40.4448 134.258 36.0582 129.991 34.9145L116.364 31.2626L112.713 17.6371C111.57 13.3695 107.183 10.8369 102.915 11.9802Z" fill="#F0F0F7"/>
<path d="M46 71.48L66.6943 92L103 56" stroke="#00A9B4" stroke-width="4" stroke-linecap="round"/>
</svg>
