<svg width="351" height="440" viewBox="0 0 351 440" fill="none" xmlns="http://www.w3.org/2000/svg">
<path d="M351 440H0C121.503 440 220 341.503 220 220C220 98.4974 121.503 0 0 0H351V440Z" fill="#CCEAFF"/>
<path d="M0 0H351V440H0V0Z" fill="#E0F2FF"/>
<path d="M185 351.154C185 369.847 200.154 385 218.847 385C200.154 385 185 400.153 185 418.846C185 400.153 169.847 385 151.154 385C169.847 385 185 369.847 185 351.154Z" fill="#CCEAFF"/>
<path d="M295 351.154C295 369.847 310.154 385 328.847 385C310.154 385 295 400.153 295 418.846C295 400.153 279.847 385 261.154 385C279.847 385 295 369.847 295 351.154Z" fill="#CCEAFF"/>
<path d="M185 241.154C185 259.847 200.154 275 218.847 275C200.154 275 185 290.153 185 308.846C185 290.153 169.847 275 151.154 275C169.847 275 185 259.847 185 241.154Z" fill="#CCEAFF"/>
<path d="M295 241.154C295 259.847 310.154 275 328.847 275C310.154 275 295 290.153 295 308.846C295 290.153 279.847 275 261.154 275C279.847 275 295 259.847 295 241.154Z" fill="#CCEAFF"/>
<path d="M185 131.154C185 149.847 200.154 165 218.847 165C200.154 165 185 180.153 185 198.846C185 180.153 169.847 165 151.154 165C169.847 165 185 149.847 185 131.154Z" fill="#CCEAFF"/>
<path d="M295 131.154C295 149.847 310.154 165 328.847 165C310.154 165 295 180.153 295 198.846C295 180.153 279.847 165 261.154 165C279.847 165 295 149.847 295 131.154Z" fill="#CCEAFF"/>
<path d="M185 21.1533C185 39.846 200.154 55 218.847 55C200.154 55 185 70.1532 185 88.8457C185 70.1532 169.847 55 151.154 55C169.847 55 185 39.846 185 21.1533Z" fill="#CCEAFF"/>
<path d="M295 21.1533C295 39.846 310.154 55 328.847 55C310.154 55 295 70.1532 295 88.8457C295 70.1532 279.847 55 261.154 55C279.847 55 295 39.846 295 21.1533Z" fill="#CCEAFF"/>
</svg>
