<svg width="40" height="40" viewBox="0 0 40 40" fill="none" xmlns="http://www.w3.org/2000/svg">
<path d="M1 10.0909L1.12215 39H21C26.5228 39 31 34.5228 31 29V1H10.1176L1 10.0909Z" stroke="#00A9B4" stroke-width="2" stroke-linecap="round"/>
<path d="M2 11H11V2" stroke="#00A9B4" stroke-width="2"/>
<rect x="10" y="16" width="30" height="15" fill="#E31E24"/>
<path d="M15 27V20H17.9863C18.3104 20 18.608 20.0657 18.8792 20.1972C19.1504 20.3286 19.3852 20.5061 19.5836 20.7296C19.7887 20.9531 19.9474 21.2028 20.0599 21.4789C20.1723 21.7549 20.2285 22.0376 20.2285 22.3268C20.2285 22.7211 20.1359 23.0958 19.9507 23.4507C19.7655 23.8056 19.5109 24.0948 19.1868 24.3183C18.8627 24.5418 18.4791 24.6535 18.0359 24.6535H16.3691V27H15ZM16.3691 23.4606H17.9565C18.1219 23.4606 18.2707 23.4146 18.403 23.3225C18.5353 23.2305 18.6411 23.0991 18.7205 22.9282C18.7999 22.7507 18.8395 22.5502 18.8395 22.3268C18.8395 22.0836 18.7932 21.8765 18.7006 21.7056C18.6147 21.5347 18.4989 21.4066 18.3534 21.3211C18.2145 21.2357 18.0624 21.193 17.897 21.193H16.3691V23.4606Z" fill="white"/>
<path d="M22.1736 27V20H24.7332C25.5005 20 26.1421 20.1577 26.658 20.4732C27.1739 20.7822 27.5608 21.2028 27.8188 21.7352C28.0767 22.261 28.2057 22.846 28.2057 23.4901C28.2057 24.2 28.0635 24.8178 27.7791 25.3437C27.4947 25.8695 27.0912 26.277 26.5687 26.5662C26.0528 26.8554 25.441 27 24.7332 27H22.1736ZM26.8266 23.4901C26.8266 23.0366 26.744 22.639 26.5786 22.2972C26.4133 21.9488 26.1751 21.6793 25.8643 21.4887C25.5534 21.2915 25.1764 21.193 24.7332 21.193H23.5427V25.807H24.7332C25.183 25.807 25.5633 25.7085 25.8742 25.5113C26.1851 25.3075 26.4199 25.0315 26.5786 24.6831C26.744 24.3282 26.8266 23.9305 26.8266 23.4901Z" fill="white"/>
<path d="M30.2675 27V20H35V21.193H31.6367V22.9972H34.4345V24.1014H31.6367V27H30.2675Z" fill="white"/>
</svg>
