<svg width="64" height="64" viewBox="0 0 64 64" fill="none" xmlns="http://www.w3.org/2000/svg">
<path d="M32.5723 0C47.4049 0.000151012 59.4287 12.0648 59.4287 26.9473C59.4287 34.6069 56.2436 41.5206 51.1299 46.4268L33.2598 63.3486C32.8741 63.7138 32.2704 63.7138 31.8848 63.3486L14.0137 46.4268C8.89991 41.5206 5.71484 34.6069 5.71484 26.9473C5.7149 12.0647 17.7395 0 32.5723 0ZM32.5713 19.4287C28.4686 19.4287 25.1426 22.7547 25.1426 26.8574C25.1427 30.96 28.4686 34.2861 32.5713 34.2861C36.6739 34.2861 39.9999 30.96 40 26.8574C40 22.7548 36.6739 19.4288 32.5713 19.4287Z" fill="#E31E24"/>
</svg>
